<svg xmlns="http://www.w3.org/2000/svg" version="1.1" xmlns:xlink="http://www.w3.org/1999/xlink" xmlns:svgjs="http://svgjs.dev/svgjs" width="1500" height="1500" viewBox="0 0 1500 1500"><rect width="1500" height="1500" fill="#000000"></rect><g transform="matrix(0.4319654427645788,0,0,0.4319654427645788,425.4296079571455,250.40485829959516)"><svg viewBox="0 0 160 247" data-background-color="#000000" preserveAspectRatio="xMidYMid meet" height="2315" width="1500" xmlns="http://www.w3.org/2000/svg" xmlns:xlink="http://www.w3.org/1999/xlink"><g id="tight-bounds" transform="matrix(1,0,0,1,0.14724880844886457,-0.09999999999999432)"><svg viewBox="0 0 159.70550238310224 247.2" height="247.2" width="159.70550238310224"><g><svg viewBox="0 0 395.52 612.2052311351351" height="247.2" width="159.70550238310224"><g transform="matrix(1,0,0,1,0,378.36739329729727)"><svg viewBox="0 0 395.52 233.8378378378378" height="233.8378378378378" width="395.52"><g id="textblocktransform"><svg viewBox="0 0 395.52 233.8378378378378" height="233.8378378378378" width="395.52" id="textblock"><g><svg viewBox="0 0 395.52 233.8378378378378" height="233.8378378378378" width="395.52"><g transform="matrix(1,0,0,1,0,0)"><svg width="395.52" viewBox="1.8 -35 59.2 35" height="233.8378378378378" data-palette-color="url(#fa13d1c7-a4c9-4eb8-a040-9d95c591d4c9)"></svg></g></svg></g></svg></g></svg></g><g transform="matrix(1,0,0,1,116.60029461265513,0)"><svg viewBox="0 0 162.31941077468971 323.16389189189186" height="323.16389189189186" width="162.31941077468971"><g><svg xmlns="http://www.w3.org/2000/svg" xmlns:xlink="http://www.w3.org/1999/xlink" version="1.1" x="8" y="0" viewBox="32.46942660583065 6.847059832981749 39.13844998689852 86.44194063806441" enable-background="new 0 0 100 100" xml:space="preserve" height="323.16389189189186" width="146.31941077468971" class="icon-icon-0" data-fill-palette-color="accent" id="icon-0"></svg></g></svg></g><g></g></svg></g><defs></defs><mask id="c860ff36-0350-4641-a858-6841986e4a70"><g id="SvgjsG3703"><svg viewBox="0 0 159.70550238310224 247.2" height="247.2" width="159.70550238310224"><g><svg viewBox="0 0 395.52 612.2052311351351" height="247.2" width="159.70550238310224"><g transform="matrix(1,0,0,1,0,378.36739329729727)"><svg viewBox="0 0 395.52 233.8378378378378" height="233.8378378378378" width="395.52"><g id="SvgjsG3702"><svg viewBox="0 0 395.52 233.8378378378378" height="233.8378378378378" width="395.52" id="SvgjsSvg3701"><g><svg viewBox="0 0 395.52 233.8378378378378" height="233.8378378378378" width="395.52"><g transform="matrix(1,0,0,1,0,0)"><svg width="395.52" viewBox="1.8 -35 59.2 35" height="233.8378378378378" data-palette-color="url(#fa13d1c7-a4c9-4eb8-a040-9d95c591d4c9)"><path d="M11.55-19.55L20-19.75 21.35-23.1 23.1-22.6 23.1-13.75 21.7-13.25 20-16.55 11.55-16.8 11.55-3.2 17.25-2.25 16.75 0 1.8 0 1.8-1.75 6.55-3.2 6.55-31.8 1.8-32.75 2.3-35 27.85-35 27.85-26.55 25.35-26.05 23.75-32.25 11.55-32.25 11.55-19.55ZM57.5-3.1L61-2.25 60.5 0 49 0 49-1.75 52.55-2.85 49.35-11 35.6-11 32.55-3 36.6-2.25 36.1 0 26.05 0 26.05-1.75 29.6-3 41.65-35 45.3-35 57.5-3.1ZM42.45-29.2L36.6-13.75 48.35-13.75 42.45-29.2Z" opacity="1" transform="matrix(1,0,0,1,0,0)" fill="white" class="wordmark-text-0" id="SvgjsPath3700"></path></svg></g></svg></g></svg></g></svg></g><g transform="matrix(1,0,0,1,116.60029461265513,0)"><svg viewBox="0 0 162.31941077468971 323.16389189189186" height="323.16389189189186" width="162.31941077468971"><g><svg xmlns="http://www.w3.org/2000/svg" xmlns:xlink="http://www.w3.org/1999/xlink" version="1.1" x="8" y="0" viewBox="32.46942660583065 6.847059832981749 39.13844998689852 86.44194063806441" enable-background="new 0 0 100 100" xml:space="preserve" height="323.16389189189186" width="146.31941077468971" class="icon-icon-0" data-fill-palette-color="accent" id="SvgjsSvg3699"><path fill="black" d="M49.519 64.45C49.155 64.45 48.513 64.318 47.257 63.806H45.468A1 1 0 0 1 45.305 63.792C44.66 63.681 44.012 63.3 43.771 62.669A7.5 7.5 0 0 1 42.261 62.869C42.18 62.873 42.114 62.875 42.067 62.881 41.924 62.919 41.552 63.012 40.513 62.408A0.97 0.97 0 0 1 40.041 61.441 0.97 0.97 0 0 1 40.76 60.64C40.853 60.617 41.108 60.554 41.416 60.488L41.372 60.486A1.46 1.46 0 0 1 40.62 60.192C39.893 60.587 39.659 60.626 39.558 60.643 39.08 60.723 38.473 60.523 38.154 60.398A0.96 0.96 0 0 1 37.545 59.541C36.527 59.562 35.685 59.06 35.59 58.999A0.967 0.967 0 0 1 35.28 57.702 4 4 0 0 1 34.669 57.44 3.4 3.4 0 0 0 33.391 57.051C32.934 57.029 32.551 56.688 32.481 56.236S32.664 55.344 33.092 55.184L34.518 54.652C34.393 54.223 34.435 54.003 34.498 53.818 34.7 53.209 35.235 53.021 36.101 53.277 36.361 53.353 36.722 53.473 37.138 53.612 38.091 53.93 40.329 54.66 40.923 54.585 41.864 54.447 43.754 53.496 44.375 53.184L44.579 53.082C42.932 53.153 42.57 52.653 42.431 52.459A1.12 1.12 0 0 1 42.232 51.634C42.049 51.653 41.843 51.654 41.614 51.629 40.308 51.486 39.397 50.777 39.397 49.906 39.392 49.771 39.343 49.493 39.306 49.266L39.283 49.114A4 4 0 0 0 38.684 48.649C38.1 48.548 36.975 48.232 36.996 47.298 37 47.145 37.069 46.379 38.09 46.274 38.367 46.246 38.599 46.229 38.78 46.238 39.764 45.386 40.099 45.386 40.328 45.386H40.407A0.97 0.97 0 0 1 41.093 45.1H41.717C42.059 45.1 42.368 45.28 42.54 45.562 42.602 45.586 42.659 45.611 42.714 45.635 42.837 45.689 42.848 45.693 42.914 45.697L43.111 45.712C43.342 45.731 43.525 45.747 43.68 45.714L44.156 45.385C44.257 45.317 44.347 45.254 44.432 45.198A1.18 1.18 0 0 1 44.283 44.282C44.341 44.048 44.48 43.779 44.796 43.577A2 2 0 0 1 44.654 43.451L44.292 43.661A1 1 0 0 1 43.898 43.787C42.34 43.934 41.303 43.752 40.815 43.246 40.519 42.94 40.118 42.661 39.966 42.589 39.556 42.499 39.199 42.132 39.153 41.715 39.027 40.597 40.775 39.972 40.793 39.966A5 5 0 0 1 40.994 39.686L41.039 39.625A1 1 0 0 1 40.644 39.531C40.468 39.447 39.882 39.121 39.734 38.488A1.24 1.24 0 0 1 39.821 37.67 1 1 0 0 1 39.624 37.164 4 4 0 0 0 39.541 36.891 0.9 0.9 0 0 1 39.512 36.388L39.672 35.624A0.95 0.95 0 0 1 39.895 35.182L40.277 34.752A1 1 0 0 1 40.387 34.647 0.95 0.95 0 0 1 40.191 34.261L40.127 34.001A1 1 0 0 1 40.112 33.607L40.104 33.581C40.031 33.326 39.878 32.794 40.232 32.307 40.607 31.789 41.26 31.765 41.474 31.756 41.595 31.752 41.658 31.749 41.689 31.746L41.69 31.757C42.166 31.685 42.478 31.723 42.693 31.702 42.99 31.675 43.298 31.647 43.723 31.768 43.787 31.787 43.878 31.812 43.977 31.855 44.064 31.864 44.092 31.85 44.196 31.807 44.24 31.789 44.29 31.768 44.346 31.749A0.94 0.94 0 0 1 44.817 31.661 1 1 0 0 1 45.197 31.766C45.253 31.782 45.333 31.803 45.446 31.831 45.782 31.914 45.991 31.977 46.151 32.024 46.306 32.07 46.393 32.099 46.569 32.119 46.829 32.148 46.958 32.185 47.07 32.217A0.6 0.6 0 0 0 47.225 32.233C47.472 32.233 47.866 32.123 47.972 32.057A3 3 0 0 0 48.076 31.89C48.121 31.816 48.167 31.74 48.22 31.661A0.96 0.96 0 0 1 48.441 31.188 1.3 1.3 0 0 1 48.221 31.035C48.052 30.891 47.818 30.692 47.621 30.425A2 2 0 0 1 47.282 30.404 2.6 2.6 0 0 1 46.494 30.182C46.451 30.201 46.403 30.222 46.349 30.244L46.014 30.387C45.535 30.593 45.173 30.747 44.779 30.662L44.644 30.658 44.613 30.722A1.1 1.1 0 0 1 43.931 31.255C43.26 31.463 42.705 31.397 42.256 31.068 42.195 31.062 42.161 31.071 42.113 31.073 41.937 31.078 41.719 31.086 41.471 31.043 41.353 31.023 41.155 31.027 40.946 31.024 40.242 31.014 39.677 31.007 39.282 30.685L39.189 30.642C38.879 30.499 38.237 30.202 38.191 29.488 38.174 29.227 38.239 28.732 38.857 28.343 39.062 27.711 39.54 27.413 40.352 27.46L40.783 27.489C41.281 27.526 41.507 27.541 41.961 27.468 42.183 27.431 42.318 27.418 42.418 27.407 42.498 27.389 42.571 27.363 42.669 27.32A2.2 2.2 0 0 1 42.179 26.91L42.086 26.808H42.083C41.954 26.808 41.849 26.818 41.758 26.826 41.435 26.856 40.999 26.892 40.487 26.563 39.894 26.557 39.606 26.246 39.496 26.044 39.177 25.457 39.562 24.941 39.748 24.694A0.6 0.6 0 0 0 39.813 24.594C39.852 24.137 40.088 23.805 40.568 23.543 40.642 23.502 40.714 23.454 40.783 23.409 41.103 23.2 41.582 22.883 42.192 23.043 42.22 23.05 42.251 23.06 42.282 23.07 42.39 22.724 42.631 22.475 43 22.325 43.078 22.294 43.146 22.258 43.214 22.223 43.456 22.1 43.786 21.931 44.252 21.889 44.221 21.851 44.189 21.827 44.164 21.806 44.033 21.691 43.685 21.387 43.705 20.871 43.726 20.337 44.123 20.04 44.254 19.942L44.368 19.853C44.636 19.639 44.8 19.582 45.129 19.53L45.258 19.508C45.373 19.392 45.533 19.286 45.756 19.208L45.97 19.129C46.369 18.976 46.66 18.89 47.315 18.971 47.474 18.991 47.619 19.027 47.748 19.078 47.923 18.965 48.154 18.89 48.443 18.852 49.007 18.775 49.354 18.889 49.633 19.001L49.656 19.005C49.681 18.983 49.71 18.961 49.74 18.939 49.906 18.693 50.168 18.432 50.704 18.282L50.889 18.231 50.933 17.709 48.787 17.835A4 4 0 0 0 48.095 17.918C47.963 17.947 47.835 17.974 47.617 17.997 46.588 18.11 46.26 17.588 46.155 17.269 45.867 16.389 46.781 15.857 47.126 15.657 47.498 15.44 47.665 15.304 47.787 15.205 47.957 15.067 48.169 14.895 48.545 14.809 48.915 14.727 49.079 14.721 49.382 14.778L49.491 14.798C49.516 14.796 49.569 14.784 49.625 14.776 49.699 14.766 49.784 14.754 49.879 14.744A1.27 1.27 0 0 1 49.521 13.961 0.96 0.96 0 0 1 49.075 12.872C49.113 12.733 49.275 12.254 49.796 11.912 49.869 11.824 49.957 11.733 50.07 11.653A1 1 0 0 1 50.273 11.348 1 1 0 0 1 50.657 11.097 1 1 0 0 1 50.693 10.582C50.882 10.048 51.014 9.749 51.127 9.563 51.16 9.404 51.193 9.16 51.23 8.922 51.278 8.609 51.326 8.303 51.367 8.128 51.381 8.074 51.4 7.992 51.433 7.895 51.425 7.45 51.569 7.055 52.12 6.89 52.329 6.826 53.034 6.701 53.407 7.669A0.96 0.96 0 0 1 53.433 8.284L53.449 8.359C53.583 8.966 53.63 9.383 53.661 9.66L53.741 9.679C54.033 9.748 54.195 9.817 54.318 9.873 54.358 9.87 54.407 9.863 54.468 9.854 55.718 9.678 56.087 10.247 56.197 10.602 56.337 11.054 56.094 11.605 55.671 11.815 55.597 11.853 55.154 12.073 54.65 12.309 54.586 12.627 54.411 12.89 54.245 13.099 54.651 13.488 54.911 13.986 55.021 14.587 55.493 15.366 55.288 16.135 54.478 16.689 54.419 16.729 54.374 16.762 54.336 16.789 54.343 16.849 54.348 16.914 54.352 16.984 54.374 17.341 54.395 18.196 54.407 18.758 54.575 18.865 54.756 18.988 54.907 19.107 55.17 18.902 55.558 18.662 56.052 18.769 56.243 18.81 56.401 18.881 56.54 18.943 56.644 18.989 56.741 19.033 56.81 19.043 57.172 19.092 58.516 19.289 58.647 19.314 58.818 19.346 59.043 19.431 59.314 19.565A0.962 0.962 0 0 1 59.461 21.2C59.312 21.311 59.152 21.433 58.997 21.555 59.613 21.832 60.004 22.319 60.387 22.796L60.527 22.97C60.707 23.191 61.008 23.565 61.046 23.992 61.257 24.309 61.504 24.827 61.192 25.365L61.156 25.424C61.163 25.634 61.115 25.84 61.011 26.021 61.381 26.047 61.698 26.085 61.95 26.173 62.164 25.985 62.492 25.853 62.974 25.989 63.039 26.007 63.143 26.036 63.314 26.075 63.528 26.125 64.091 26.084 64.503 26.055 65.574 25.98 66.505 25.912 67.003 26.584 67.32 27.01 67.758 27.597 67.643 28.294A1.36 1.36 0 0 1 67.067 29.19C67.328 29.543 67.783 30.254 67.301 30.936 67.623 31.359 67.55 31.748 67.447 31.985 67.334 32.244 67.108 32.624 66.448 32.591A1 1 0 0 1 66.632 33.143 1 1 0 0 1 66.502 33.68C66.613 33.986 66.669 34.368 66.462 34.775 66.113 35.462 65.28 35.665 64.512 35.774 63.333 35.941 62.606 35.982 62.092 35.79 61.96 36.017 61.738 36.229 61.364 36.341 60.754 36.521 59.508 36.308 59.013 36.073A1 1 0 0 1 58.872 35.996L58.837 35.998 58.7 36.006C58.655 36.216 58.568 36.416 58.442 36.593A1.8 1.8 0 0 1 57.628 37.218C57.886 37.276 58.16 37.398 58.494 37.588 60.352 38.642 60.432 39.192 60.472 39.457 60.516 39.754 60.404 40.04 60.205 40.302 60.762 40.417 61.206 40.568 61.549 40.756L61.683 40.831C61.775 40.883 61.844 40.927 61.911 40.954 61.904 40.942 62.001 40.918 62.225 40.837 63.48 40.386 65.214 41.193 65.492 41.4 65.647 41.516 65.753 41.651 65.826 41.777 66.106 41.912 66.315 42.155 66.393 42.468 66.448 42.685 66.54 43.411 65.55 43.876A1 1 0 0 1 65.159 44.183L65.267 44.236C65.989 44.586 66.559 44.863 66.638 45.552 66.655 45.696 66.651 45.923 66.532 46.167 66.598 46.432 66.57 46.677 66.45 46.909 66.154 47.483 65.508 47.545 65.231 47.572L65.208 47.574C65.278 47.777 65.339 48.087 65.19 48.434 65.072 48.708 64.858 48.921 64.55 49.069 64.25 49.439 63.812 49.497 63.605 49.524L63.346 49.555 63.338 49.556C63.247 49.792 63.067 50.017 62.8 50.23 62.635 50.361 62.615 50.4 62.588 50.454A2 2 0 0 1 62.403 50.751C62.341 50.918 62.258 51.059 62.202 51.155 62.134 51.272 62.098 51.353 62.072 51.41 61.778 52.065 61.313 52.158 60.854 52.158 60.75 52.155 60.678 52.157 60.605 52.155L60.778 52.22C60.868 52.254 60.929 52.281 60.985 52.295 60.997 52.284 61.089 52.261 61.24 52.231 61.904 52.096 62.266 52.239 62.552 52.385A0.25 0.25 0 0 0 62.712 52.427C62.949 52.436 63.11 52.453 63.233 52.473 63.475 52.451 63.74 52.492 63.923 52.616 64.411 52.943 64.406 53.462 64.402 53.92L64.401 53.98 64.422 53.988 64.531 54.003C65.084 54.003 65.539 54.254 65.817 54.434 65.873 54.424 65.94 54.41 66.023 54.39 66.427 54.289 67.175 54.1 67.678 54.769 67.74 54.809 67.863 54.863 67.932 54.873L68.145 54.908C68.27 54.929 68.55 54.975 68.791 55.005 68.885 54.908 68.984 54.845 69.062 54.806 69.621 54.527 70.117 54.857 70.33 54.997 70.371 55.024 70.38 55.025 70.484 55.03 70.654 55.037 71.103 55.055 71.405 55.466 71.544 55.654 71.683 55.975 71.561 56.434 71.424 56.947 71.088 57.242 70.744 57.436A0.96 0.96 0 0 1 70.637 58.251C70.293 58.801 69.689 58.748 69.365 58.72 69.19 58.704 68.978 58.726 68.728 58.751 68.39 58.785 68.008 58.821 67.563 58.793 67.291 58.773 67.062 58.798 66.875 58.814 66.515 58.847 66.142 58.879 65.769 58.681 65.545 58.561 65.396 58.396 65.276 58.264 65.231 58.215 65.165 58.141 65.135 58.122A2.2 2.2 0 0 1 64.714 58.03 1.2 1.2 0 0 1 64.254 58.43C64.281 58.448 64.309 58.465 64.336 58.484L64.509 58.596C64.896 58.843 64.975 58.908 65.212 59.116L65.445 59.319C65.571 59.427 65.67 59.522 65.757 59.607 65.942 59.786 65.961 59.805 66.253 59.884 66.741 60.017 66.889 60.087 67.033 60.152 67.095 60.18 67.155 60.207 67.298 60.25 67.834 60.41 68.203 60.636 68.396 60.92A0.962 0.962 0 0 1 67.384 62.399C67.376 62.399 66.976 62.342 66.483 62.627 65.387 63.265 64.331 63.126 63.653 62.256A10 10 0 0 0 63.086 62.363C62.636 62.457 61.656 62.662 61.188 61.91 61.007 61.928 60.786 61.949 60.511 61.968 60.178 61.991 59.944 62.014 59.767 62.032 59.059 62.099 58.894 62.074 58.274 61.796 57.678 61.528 56.035 60.547 55.438 60.095 55.248 60.06 54.838 60.036 54.413 60.033L53.626 60.964A1 1 0 0 1 53.727 61.394 0.95 0.95 0 0 1 53.586 61.895C53.503 62.119 53.317 62.675 53.169 63.139A0.96 0.96 0 0 1 52.444 63.788C51.429 63.996 50.194 64.271 49.968 64.354 49.873 64.396 49.753 64.45 49.519 64.45M50.667 59.245L51.343 60.751A1 1 0 0 1 51.5 60.492L53.204 58.475A1 1 0 0 1 53.023 58.1C52.993 57.972 52.747 56.822 53.418 55.936 53.987 55.181 54.94 55.14 55.452 55.118 55.529 55.115 55.598 55.114 55.651 55.106 55.932 55.006 56.649 54.981 57.187 54.981 57.458 54.981 57.718 55.096 57.901 55.297 57.989 55.391 58.329 55.693 58.655 55.771 58.802 55.806 58.884 55.823 58.931 55.829 59.12 55.808 59.315 55.885 59.499 55.96 59.957 56.147 60.819 56.447 61.205 56.538 61.464 56.365 61.991 56.093 62.598 56.396 62.742 56.467 62.895 56.568 63.046 56.671 63.092 56.703 63.137 56.736 63.181 56.764L63.243 56.747C63.322 56.637 63.435 56.506 63.601 56.37 64.012 56.032 64.442 56.01 64.782 56.06 64.694 56.003 64.584 55.937 64.525 55.93H64.523A2 2 0 0 1 63.675 55.764 1.12 1.12 0 0 1 62.875 55.431C62.577 55.129 62.498 54.735 62.479 54.342A2.1 2.1 0 0 1 61.689 54.108L61.627 54.12C60.906 54.267 60.705 54.254 60.096 54.024A11 11 0 0 0 59.681 53.872 1 1 0 0 0 59.56 53.836C59.571 53.843 59.542 53.86 59.511 53.877 59.249 54.016 58.854 54.226 58.111 54.323 57.053 54.461 56.747 54.461 56.163 54.136A3 3 0 0 0 55.862 53.982C55.122 53.646 53.479 52.851 53.479 52.851A0.96 0.96 0 0 1 52.949 52.144C52.936 52.069 52.898 51.843 52.97 50.706 52.991 50.376 53.029 49.76 53.527 49.422 53.866 49.194 54.206 49.225 54.416 49.273A1.87 1.87 0 0 1 55.375 49.045L55.573 49.04C56.34 48.874 56.685 49.409 56.817 49.611 56.904 49.744 57.059 49.98 57.378 50.392 57.74 50.862 57.956 51.069 58.071 51.161 58.585 50.641 58.723 50.502 59.107 50.419 59.63 50.193 60.121 50.208 60.516 50.225L60.538 50.186C60.552 50.164 60.562 50.144 60.573 50.125 60.608 49.941 60.707 49.74 60.914 49.534 60.982 49.368 61.12 49.132 61.481 48.823 61.498 48.751 61.522 48.677 61.558 48.603A2.6 2.6 0 0 1 61.072 48.627C60.812 48.615 60.502 48.57 60.228 48.365A0.7 0.7 0 0 0 59.987 48.423C59.614 48.562 58.503 48.976 58.003 48.156A3 3 0 0 0 57.778 48.053L57.585 47.973C57.021 47.741 56.529 47.538 56.189 47.21A3 3 0 0 0 55.7 47.256C54.779 47.396 54.329 47.046 54.022 46.664 53.561 46.738 53.213 46.628 52.947 46.348 52.548 45.931 52.614 45.41 52.724 45.036A0.9 0.9 0 0 1 52.509 44.421C52.504 43.732 52.888 43.53 53.526 43.465V43.452L53.668 43.453C53.828 43.442 54.002 43.437 54.188 43.434 53.775 43.262 53.457 43.098 53.315 42.967 53.086 42.757 52.938 42.389 52.975 42.08 53.077 41.228 53.763 41.061 54.022 40.998 54.097 40.979 54.193 40.956 54.317 40.918 54.86 40.751 56.961 40.085 57.405 39.943 57.532 39.899 57.8 39.746 58.062 39.579A9 9 0 0 0 57.543 39.265 3 3 0 0 0 57.261 39.119 2 2 0 0 1 57.103 39.163C57.023 39.209 56.932 39.281 56.835 39.352 56.45 39.635 55.971 39.986 55.4 39.986 54.755 39.986 54.416 39.748 54.169 39.574 54.12 39.54 54.067 39.502 54.003 39.463A2.7 2.7 0 0 0 53.484 39.228 0.97 0.97 0 0 1 52.807 38.308V37.829C52.807 37.592 52.894 37.366 53.047 37.192A0.96 0.96 0 0 1 52.903 36.726L52.872 35.999A0.95 0.95 0 0 1 53.086 35.351C53.315 35.068 53.746 34.792 54.265 34.872 54.678 34.933 55.106 35.239 55.347 35.458 55.525 35.476 55.886 35.486 56.425 35.489 56.622 35.485 56.678 35.48 56.755 35.468A1.1 1.1 0 0 1 56.922 34.638C57.26 34.138 57.788 34.116 58.4 34.091L58.736 34.076C59.325 34.047 59.727 34.026 60.04 34.394 60.151 34.418 60.287 34.442 60.418 34.459L60.43 34.399C60.547 33.88 60.809 33.544 61.207 33.397 61.827 33.171 62.34 33.557 62.588 33.742 62.705 33.829 62.792 33.92 62.856 33.994 63.027 34 63.409 33.987 64.239 33.869 64.324 33.857 64.398 33.845 64.465 33.833A1.3 1.3 0 0 1 64.42 33.572 2 2 0 0 1 64.047 33.254C63.751 32.932 63.686 32.905 63.325 32.751 63.14 32.707 62.406 32.681 61.741 32.667A2.5 2.5 0 0 1 60.841 32.652L60.743 32.651C60.493 32.648 60.289 32.645 60.161 32.641 60.042 32.674 59.885 32.745 59.709 32.817 58.91 33.143 57.914 33.55 57.114 33.077A0.3 0.3 0 0 0 57.015 33.031C56.994 33.031 56.916 33.049 56.859 33.062A2.6 2.6 0 0 1 56.263 33.14C56.239 33.145 56.11 33.193 56.033 33.221 55.72 33.337 55.248 33.51 54.767 33.238A1.1 1.1 0 0 1 54.331 32.78C54.178 32.687 53.898 32.56 53.78 32.506 53.444 32.354 53.179 32.234 53.021 31.881 52.979 31.789 52.872 31.549 52.872 29.98 52.872 29.318 53.56 28.71 53.993 28.483A1.13 1.13 0 0 1 54.998 28.434C55.518 28.666 55.648 29.179 55.726 29.486 55.75 29.579 55.775 29.685 55.816 29.789 55.857 29.889 55.882 29.918 55.882 29.918 55.898 29.933 55.98 29.98 56.034 30.011 56.225 30.121 56.335 30.198 56.455 30.283 56.607 30.391 56.765 30.504 57.02 30.63 57.222 30.511 57.529 30.413 57.907 30.401H57.968L58.039 30.312 58.176 30.147C58.889 29.303 59.55 29.603 59.878 29.856A0.3 0.3 0 0 0 60.028 29.924C60.548 30.047 60.898 30.21 61.155 30.677 61.155 30.681 61.17 30.698 61.208 30.729L61.607 30.736 61.644 30.73A6 6 0 0 1 61.99 30.679C62.203 30.319 62.522 30.179 62.676 30.112A0.7 0.7 0 0 0 62.883 29.989C63.175 29.737 63.863 29.139 64.636 29.828 64.717 29.886 64.947 30.008 65.232 30.146 65.258 30.12 65.286 30.096 65.313 30.073A8 8 0 0 1 65.065 29.715C64.953 29.542 64.613 29.014 64.838 28.423 64.918 28.213 65.041 28.061 65.178 27.95 64.99 27.959 64.79 27.973 64.637 27.984 63.989 28.031 63.374 28.074 62.878 27.96L62.809 27.944C62.774 27.964 62.736 27.984 62.697 28.003 62.374 28.164 61.838 28.432 61.299 28.158A1 1 0 0 1 61.027 27.96 35 35 0 0 0 60.426 27.923C59.311 27.863 58.745 27.833 58.405 27.414A16 16 0 0 0 57.565 26.903C57.107 26.635 56.673 26.382 56.388 26.169 56.294 26.099 56.214 26.073 56.028 26.016 55.69 25.912 55.229 25.771 54.697 25.253 54.469 25.032 53.935 24.514 54.254 23.828 54.568 23.15 55.278 23.22 55.708 23.261 55.951 23.285 56.281 23.319 56.693 23.312 57.746 23.291 58.072 23.317 58.64 23.714 58.304 23.317 58.18 23.258 57.827 23.258 57.409 23.258 56.709 23.258 56.35 22.684 56.209 22.458 56.091 22.089 56.316 21.597 56.346 21.44 56.413 21.275 56.701 20.98L56.548 20.959A2.6 2.6 0 0 1 55.911 20.779 3 3 0 0 1 55.385 21.129C54.706 21.463 54.093 21.286 53.739 20.657 53.66 20.574 53.295 20.334 52.969 20.147A0.97 0.97 0 0 1 52.536 19.615 0.96 0.96 0 0 1 52.002 19.943C51.989 19.946 51.71 20.009 51.268 20.132 51.198 20.233 51.094 20.357 50.938 20.465 50.69 20.777 50.372 20.937 49.915 20.986 49.753 21.004 49.376 21.045 49.066 20.853 49.008 20.833 48.959 20.813 48.917 20.797 48.623 21.056 48.222 21.119 48.046 21.147 47.927 21.167 47.833 21.209 47.715 21.174 47.947 21.316 48.121 21.486 48.266 21.627 48.446 21.804 48.601 21.957 48.894 22.113L49.055 22.197A0.965 0.965 0 0 1 50.016 22.684C50.191 22.997 50.175 23.423 49.99 23.733A1.38 1.38 0 0 1 49.297 24.399 1.8 1.8 0 0 1 48.932 24.509C48.999 24.531 49.066 24.561 49.129 24.597 49.229 24.529 49.344 24.459 49.483 24.384 50.04 24.081 50.239 24.009 50.604 23.978A2 2 0 0 0 50.819 23.95C51.348 23.851 51.844 23.778 51.844 23.778A0.964 0.964 0 0 1 52.949 24.745C52.931 25.982 52.773 27.592 52.118 28.236L51.998 28.355C51.78 28.573 51.553 28.769 51.23 28.823 51.56 29.029 51.747 29.33 51.852 29.502 51.867 29.525 51.879 29.548 51.894 29.57 52.26 29.832 52.502 30.318 52.548 30.894 52.602 31.563 52.373 32.159 51.923 32.527A5.3 5.3 0 0 1 50.888 33.197 0.97 0.97 0 0 1 50.02 33.167L49.676 32.978C49.571 33.149 49.426 33.36 49.188 33.561 48.664 34.003 47.707 34.169 47.226 34.169 46.886 34.169 46.717 34.129 46.547 34.081 46.503 34.069 46.452 34.055 46.351 34.043A4 4 0 0 1 45.6 33.875C45.458 33.833 45.275 33.778 44.979 33.705 44.917 33.689 44.849 33.672 44.777 33.652A2.3 2.3 0 0 1 43.776 33.776 2 2 0 0 1 43.376 33.709C43.578 34.046 43.593 34.457 43.412 34.791A1 1 0 0 1 43.166 35.08 1.5 1.5 0 0 1 42.986 35.353C42.977 35.423 42.962 35.498 42.936 35.575 42.727 36.195 42.23 36.361 41.845 36.322A3 3 0 0 1 41.481 36.391L41.45 36.54 41.462 36.579 41.549 36.636A0.93 0.93 0 0 1 41.994 37.448L41.992 37.519C42.056 37.455 42.137 37.387 42.234 37.318 42.738 36.962 43.179 37.026 43.401 37.098A1 1 0 0 1 43.52 37.144C43.673 37.144 43.877 37.155 44.072 37.204 44.295 37.261 44.838 37.398 45.003 37.994 45.134 37.934 45.295 37.886 45.492 37.871 45.915 37.843 46.158 37.916 46.396 38.04 46.505 38.082 46.628 38.134 46.729 38.179H46.809C47.341 38.179 47.773 38.611 47.773 39.143V39.358A0.96 0.96 0 0 1 47.279 40.199L46.896 40.413A0.96 0.96 0 0 1 46.426 40.536H45.967A0.95 0.95 0 0 1 45.239 40.941S44.757 40.968 44.473 40.938A2 2 0 0 1 43.849 40.752H43.787A2.8 2.8 0 0 1 42.944 40.871H42.516C42.357 41.086 42.142 41.365 41.84 41.576 41.962 41.682 42.06 41.774 42.122 41.834 42.35 41.901 42.95 41.922 43.51 41.888L44.12 41.533A0.97 0.97 0 0 1 44.767 41.416L45.181 41.487C45.39 41.523 45.581 41.627 45.725 41.782 45.852 41.649 46.021 41.52 46.25 41.407 46.731 41.167 47.633 40.733 47.633 40.733A0.95 0.95 0 0 1 48.113 40.64L48.497 40.665A1 1 0 0 1 48.803 40.736L49.104 40.861A1.28 1.28 0 0 1 50.078 40.462C50.481 40.48 50.869 40.692 51.088 41.017 51.258 41.273 51.327 41.515 51.25 42.647A0.96 0.96 0 0 1 50.964 43.269 0.966 0.966 0 0 1 49.859 44.203 1.9 1.9 0 0 1 49.304 44.017 0.96 0.96 0 0 1 48.753 44.235C49.036 44.325 49.268 44.516 49.368 44.904 49.467 45.285 49.27 45.718 48.952 45.96 48.768 46.161 48.476 46.338 48.011 46.381 47.903 46.446 47.69 46.528 47.312 46.551 46.221 46.612 45.743 46.678 45.641 46.704 45.579 46.739 45.416 46.859 45.245 46.977L45.096 47.079C45.716 46.819 46.503 46.864 47.324 46.94 47.452 46.952 47.556 46.963 47.624 46.964 47.721 46.951 48.24 46.82 48.621 46.713 49.274 46.558 49.781 46.678 50.091 47.039 50.357 47.351 50.418 47.774 50.255 48.172 50.036 48.701 49.577 48.912 47.535 49.667 47.329 49.743 47.082 49.834 46.879 49.913 46.934 49.922 46.99 49.933 47.048 49.946 47.415 50.027 47.703 50.207 47.911 50.437A2 2 0 0 1 48.574 49.813C49.388 49.349 50.258 49.665 50.352 49.703A0.96 0.96 0 0 1 50.964 50.6C50.964 53.028 50.756 54.261 49.617 54.261 49.521 54.282 49.039 54.486 48.658 54.685A1 1 0 0 1 48.241 54.794S46.137 54.858 45.976 54.858C45.89 54.858 45.771 54.844 45.631 54.82 45.572 54.809 45.466 54.786 45.439 54.795 45.461 54.795 45.369 54.843 45.239 54.908 43.859 55.602 42.301 56.333 41.198 56.494 40.249 56.64 38.673 56.156 36.707 55.503L36.688 55.557A1 1 0 0 1 36.36 55.984C36.631 56.025 36.91 56.037 37.185 56.048 37.398 56.057 37.597 56.067 37.777 56.086L38.089 56.117C39.025 56.207 39.766 56.278 39.972 57.027 40.348 57.106 40.812 57.319 41.003 57.784A0.9 0.9 0 0 1 41.068 58.051 0.96 0.96 0 0 1 41.622 58.47C41.85 58.371 42.296 58.217 42.714 58.467A10 10 0 0 1 43.612 58.669C43.924 58.756 44.982 58.617 45.257 58.457 45.271 58.433 45.382 58.211 45.442 58.092 45.574 57.829 45.846 57.287 46.368 57.171 46.587 56.588 47.176 56.303 47.438 56.176 47.493 56.149 47.545 56.125 47.591 56.098 48.033 55.834 48.608 55.882 49.306 56.241L49.422 56.154A0.965 0.965 0 0 1 50.963 56.926V58.549A0.96 0.96 0 0 1 50.667 59.245M61.566 59.949C61.966 59.949 62.381 60.044 62.66 60.481L62.692 60.474C62.905 60.43 63.153 60.378 63.436 60.337 63.491 60.329 63.551 60.32 63.616 60.312L63.47 60.218 63.281 60.095C63.2 60.041 63.146 60.004 63.099 59.979 63.075 60 62.921 59.979 62.736 59.953 62.431 59.912 61.921 59.843 61.722 59.843 61.179 59.843 60.896 59.621 60.67 59.381 60.611 59.319 60.541 59.244 60.37 59.128A1 1 0 0 1 60.265 59.144C60.247 59.146 58.882 59.275 57.812 59.337 58.295 59.628 58.793 59.912 59.05 60.027 59.178 60.085 59.251 60.121 59.316 60.141A4 4 0 0 1 59.579 60.108C59.768 60.089 60.02 60.065 60.377 60.04 60.675 60.019 60.905 59.996 61.086 59.978 61.236 59.966 61.399 59.949 61.566 59.949M48.578 58.17L48.583 58.171 48.728 58.198 48.779 58.167A4 4 0 0 0 48.303 57.897L48.281 57.908 48.22 57.936A1.3 1.3 0 0 1 48.175 58.182 1 1 0 0 1 48.578 58.17M55.529 57.044C55.768 57.081 55.988 57.129 56.15 57.19L56.462 57.312C56.694 57.405 56.762 57.43 56.902 57.449 57 57.454 57.258 57.444 57.594 57.424A4 4 0 0 1 56.815 56.915C56.514 56.925 56.244 56.944 56.152 56.964 55.97 57.026 55.758 57.034 55.534 57.044zM65.928 56.364C66.261 56.511 66.49 56.735 66.642 56.899L66.704 56.893C66.951 56.871 67.295 56.84 67.694 56.868 67.858 56.879 68.016 56.875 68.177 56.864L67.832 56.809 67.646 56.779A2.7 2.7 0 0 1 66.464 56.265 4 4 0 0 1 65.928 56.364M45.716 52.881C45.815 52.892 45.902 52.908 45.972 52.92A97 97 0 0 0 47.839 52.876C47.29 52.774 46.842 52.365 46.658 52.176A1 1 0 0 1 46.501 51.96L46.486 51.988C46.281 52.396 46.022 52.696 45.716 52.881M54.863 51.377C55.252 51.564 55.779 51.816 56.215 52.02A16 16 0 0 1 55.409 50.972H55.39C55.301 50.979 55.254 51.007 55.186 51.047A1.4 1.4 0 0 1 54.873 51.184zM44.933 50.267C44.933 50.318 44.929 50.368 44.922 50.417 44.904 50.549 44.867 50.82 44.527 51.152L44.754 51.14 44.765 51.12C44.945 50.764 45.141 50.488 45.364 50.287A15 15 0 0 1 44.933 50.267M60.607 50.591A0.94 0.94 0 0 0 60.82 50.959C60.807 50.944 60.681 50.805 60.607 50.591M41.3 49.579C41.403 49.627 41.574 49.686 41.821 49.713 42.068 49.739 42.082 49.725 42.217 49.621 42.279 49.574 42.355 49.517 42.445 49.46A1.57 1.57 0 0 1 42.919 48.641C43.046 48.181 43.453 47.885 43.951 47.626 43.575 47.685 43.247 47.659 42.955 47.636L42.784 47.623C42.38 47.596 42.125 47.484 41.938 47.402 41.89 47.381 41.839 47.358 41.777 47.337A1.6 1.6 0 0 1 41.42 47.165 0.96 0.96 0 0 1 40.902 47.315H40.528A5 5 0 0 0 40.328 47.464C40.779 47.831 41.164 48.29 41.164 48.714A16 16 0 0 1 41.3 49.579M62.979 45.868C63.149 45.921 63.5 46.009 63.771 46.07 63.894 45.99 64.028 45.916 64.184 45.852L64.038 45.78A22 22 0 0 0 63.431 45.493C62.814 45.209 61.665 44.681 62.152 43.594 62.395 43.05 62.747 42.865 62.98 42.742L63.075 42.691 63.188 42.629A0.8 0.8 0 0 0 62.877 42.65C61.888 43.008 61.492 42.934 60.74 42.511L60.618 42.443C60.436 42.343 60.011 42.182 59.062 42.07 59.253 42.189 59.382 42.284 59.487 42.396 59.907 42.845 59.817 43.312 59.759 43.492 59.551 44.138 58.934 44.261 58.389 44.37L58.212 44.406C58.006 44.448 57.651 44.418 57.221 44.341 57.7 44.59 59.03 45.144 59.682 45.327 60.015 45.419 60.271 45.397 60.622 45.369 60.867 45.348 61.115 45.33 61.375 45.34L61.475 45.343C62.188 45.368 62.43 45.445 62.979 45.868M50.246 31.068L50.255 31.074C50.295 31.103 50.354 31.146 50.464 31.207 50.515 31.171 50.569 31.132 50.626 31.088L50.623 31.024A2 2 0 0 1 50.501 30.908 1.3 1.3 0 0 1 50.246 31.068M49.114 29.076C49.136 29.147 49.153 29.222 49.166 29.303 49.177 29.316 49.217 29.353 49.264 29.394L49.281 29.389C49.532 28.97 49.815 28.759 50.086 28.665A0.6 0.6 0 0 0 49.967 28.663L49.885 28.711C49.776 28.771 49.65 28.838 49.483 28.909 49.392 28.947 49.34 28.975 49.308 28.992A1.4 1.4 0 0 1 49.114 29.076M44.313 28.685C44.357 28.695 44.404 28.703 44.456 28.709 44.66 28.732 44.77 28.734 44.798 28.737 44.864 28.733 44.924 28.733 44.977 28.737 45.052 28.707 45.142 28.666 45.25 28.619L45.608 28.467C45.729 28.417 45.792 28.388 45.824 28.369 45.897 28.321 45.968 28.286 46.035 28.261 45.821 28.217 45.677 28.184 45.576 28.161L45.507 28.176C45.286 28.223 44.821 28.445 44.371 28.658zM48.204 26.721C48.529 26.801 48.703 26.88 48.925 27.038L48.958 27.019C49.413 26.77 49.785 26.666 50.561 26.78 50.642 26.793 50.715 26.805 50.781 26.818 50.834 26.676 50.896 26.316 50.944 25.877A4 4 0 0 1 50.764 25.895C50.693 25.915 50.591 25.97 50.4 26.075 50.177 26.196 50.096 26.271 50.017 26.344 49.798 26.547 49.519 26.764 48.981 26.764 48.872 26.764 48.634 26.747 48.395 26.622A3 3 0 0 1 48.226 26.693zM44.257 25.061C44.692 25.065 44.974 25.221 45.144 25.367L45.151 25.373H45.178C45.323 25.37 45.496 25.365 45.703 25.364 45.204 25.184 44.985 24.728 44.915 24.539 44.827 24.297 44.678 23.888 44.561 23.808 44.417 23.796 44.352 23.815 44.201 23.89L44.211 23.924C44.252 24.061 44.287 24.187 44.307 24.286 44.332 24.417 44.393 24.731 44.257 25.061M52.309 15.776A1 1 0 0 1 52.557 15.909C52.684 15.678 52.888 15.467 53.188 15.242A1 1 0 0 1 53.137 15.036C53.106 14.818 53.071 14.573 52.754 14.377 52.292 14.092 52.133 13.725 52.084 13.456A2.7 2.7 0 0 1 51.438 13.232L51.409 13.218 51.378 13.232C51.409 13.321 51.431 13.415 51.442 13.513 51.53 13.581 51.62 13.668 51.697 13.784 51.879 14.055 51.898 14.341 51.914 14.571 51.92 14.659 51.93 14.806 51.949 14.856 52.119 15.127 52.308 15.428 52.309 15.776"></path><path fill="black" d="M51.454 93.289A1.064 1.064 0 0 1 50.39 92.225V21.684A1.064 1.064 0 0 1 52.518 21.684V92.226A1.063 1.063 0 0 1 51.454 93.289"></path></svg></g></svg></g><g></g></svg></g><defs><mask></mask></defs></svg><rect width="159.70550238310224" height="247.2" fill="black" stroke="none" visibility="hidden"></rect></g></mask><linearGradient x1="0.054" x2="0.941" y1="0.5" y2="0.5" id="fa13d1c7-a4c9-4eb8-a040-9d95c591d4c9"><stop stop-color="#8c8c8c" offset="0"></stop><stop stop-color="#e3e4e5" offset="0.498"></stop><stop stop-color="#8c8c8c" offset="1"></stop></linearGradient><rect width="159.70550238310224" height="247.2" fill="#ffffff" mask="url(#c860ff36-0350-4641-a858-6841986e4a70)" data-fill-palette-color="primary"></rect><mask id="837eb80b-2b18-458a-b158-b2d7a2d64dd5"><g id="SvgjsG3722"><svg viewBox="0 0 159.70550238310224 247.2" height="247.2" width="159.70550238310224"><g><svg viewBox="0 0 395.52 612.2052311351351" height="247.2" width="159.70550238310224"><g transform="matrix(1,0,0,1,0,378.36739329729727)"><svg viewBox="0 0 395.52 233.8378378378378" height="233.8378378378378" width="395.52"><g id="SvgjsG3721"><svg viewBox="0 0 395.52 233.8378378378378" height="233.8378378378378" width="395.52" id="SvgjsSvg3720"><g><svg viewBox="0 0 395.52 233.8378378378378" height="233.8378378378378" width="395.52"><g transform="matrix(1,0,0,1,0,0)"><svg width="395.52" viewBox="1.8 -35 59.2 35" height="233.8378378378378" data-palette-color="url(#fa13d1c7-a4c9-4eb8-a040-9d95c591d4c9)"></svg></g></svg></g></svg></g></svg></g><g transform="matrix(1,0,0,1,116.60029461265513,0)"><svg viewBox="0 0 162.31941077468971 323.16389189189186" height="323.16389189189186" width="162.31941077468971"><g><svg xmlns="http://www.w3.org/2000/svg" xmlns:xlink="http://www.w3.org/1999/xlink" version="1.1" x="8" y="0" viewBox="32.46942660583065 6.847059832981749 39.13844998689852 86.44194063806441" enable-background="new 0 0 100 100" xml:space="preserve" height="323.16389189189186" width="146.31941077468971" class="icon-icon-0" data-fill-palette-color="accent" id="SvgjsSvg3719"><path fill="white" d="M49.519 64.45C49.155 64.45 48.513 64.318 47.257 63.806H45.468A1 1 0 0 1 45.305 63.792C44.66 63.681 44.012 63.3 43.771 62.669A7.5 7.5 0 0 1 42.261 62.869C42.18 62.873 42.114 62.875 42.067 62.881 41.924 62.919 41.552 63.012 40.513 62.408A0.97 0.97 0 0 1 40.041 61.441 0.97 0.97 0 0 1 40.76 60.64C40.853 60.617 41.108 60.554 41.416 60.488L41.372 60.486A1.46 1.46 0 0 1 40.62 60.192C39.893 60.587 39.659 60.626 39.558 60.643 39.08 60.723 38.473 60.523 38.154 60.398A0.96 0.96 0 0 1 37.545 59.541C36.527 59.562 35.685 59.06 35.59 58.999A0.967 0.967 0 0 1 35.28 57.702 4 4 0 0 1 34.669 57.44 3.4 3.4 0 0 0 33.391 57.051C32.934 57.029 32.551 56.688 32.481 56.236S32.664 55.344 33.092 55.184L34.518 54.652C34.393 54.223 34.435 54.003 34.498 53.818 34.7 53.209 35.235 53.021 36.101 53.277 36.361 53.353 36.722 53.473 37.138 53.612 38.091 53.93 40.329 54.66 40.923 54.585 41.864 54.447 43.754 53.496 44.375 53.184L44.579 53.082C42.932 53.153 42.57 52.653 42.431 52.459A1.12 1.12 0 0 1 42.232 51.634C42.049 51.653 41.843 51.654 41.614 51.629 40.308 51.486 39.397 50.777 39.397 49.906 39.392 49.771 39.343 49.493 39.306 49.266L39.283 49.114A4 4 0 0 0 38.684 48.649C38.1 48.548 36.975 48.232 36.996 47.298 37 47.145 37.069 46.379 38.09 46.274 38.367 46.246 38.599 46.229 38.78 46.238 39.764 45.386 40.099 45.386 40.328 45.386H40.407A0.97 0.97 0 0 1 41.093 45.1H41.717C42.059 45.1 42.368 45.28 42.54 45.562 42.602 45.586 42.659 45.611 42.714 45.635 42.837 45.689 42.848 45.693 42.914 45.697L43.111 45.712C43.342 45.731 43.525 45.747 43.68 45.714L44.156 45.385C44.257 45.317 44.347 45.254 44.432 45.198A1.18 1.18 0 0 1 44.283 44.282C44.341 44.048 44.48 43.779 44.796 43.577A2 2 0 0 1 44.654 43.451L44.292 43.661A1 1 0 0 1 43.898 43.787C42.34 43.934 41.303 43.752 40.815 43.246 40.519 42.94 40.118 42.661 39.966 42.589 39.556 42.499 39.199 42.132 39.153 41.715 39.027 40.597 40.775 39.972 40.793 39.966A5 5 0 0 1 40.994 39.686L41.039 39.625A1 1 0 0 1 40.644 39.531C40.468 39.447 39.882 39.121 39.734 38.488A1.24 1.24 0 0 1 39.821 37.67 1 1 0 0 1 39.624 37.164 4 4 0 0 0 39.541 36.891 0.9 0.9 0 0 1 39.512 36.388L39.672 35.624A0.95 0.95 0 0 1 39.895 35.182L40.277 34.752A1 1 0 0 1 40.387 34.647 0.95 0.95 0 0 1 40.191 34.261L40.127 34.001A1 1 0 0 1 40.112 33.607L40.104 33.581C40.031 33.326 39.878 32.794 40.232 32.307 40.607 31.789 41.26 31.765 41.474 31.756 41.595 31.752 41.658 31.749 41.689 31.746L41.69 31.757C42.166 31.685 42.478 31.723 42.693 31.702 42.99 31.675 43.298 31.647 43.723 31.768 43.787 31.787 43.878 31.812 43.977 31.855 44.064 31.864 44.092 31.85 44.196 31.807 44.24 31.789 44.29 31.768 44.346 31.749A0.94 0.94 0 0 1 44.817 31.661 1 1 0 0 1 45.197 31.766C45.253 31.782 45.333 31.803 45.446 31.831 45.782 31.914 45.991 31.977 46.151 32.024 46.306 32.07 46.393 32.099 46.569 32.119 46.829 32.148 46.958 32.185 47.07 32.217A0.6 0.6 0 0 0 47.225 32.233C47.472 32.233 47.866 32.123 47.972 32.057A3 3 0 0 0 48.076 31.89C48.121 31.816 48.167 31.74 48.22 31.661A0.96 0.96 0 0 1 48.441 31.188 1.3 1.3 0 0 1 48.221 31.035C48.052 30.891 47.818 30.692 47.621 30.425A2 2 0 0 1 47.282 30.404 2.6 2.6 0 0 1 46.494 30.182C46.451 30.201 46.403 30.222 46.349 30.244L46.014 30.387C45.535 30.593 45.173 30.747 44.779 30.662L44.644 30.658 44.613 30.722A1.1 1.1 0 0 1 43.931 31.255C43.26 31.463 42.705 31.397 42.256 31.068 42.195 31.062 42.161 31.071 42.113 31.073 41.937 31.078 41.719 31.086 41.471 31.043 41.353 31.023 41.155 31.027 40.946 31.024 40.242 31.014 39.677 31.007 39.282 30.685L39.189 30.642C38.879 30.499 38.237 30.202 38.191 29.488 38.174 29.227 38.239 28.732 38.857 28.343 39.062 27.711 39.54 27.413 40.352 27.46L40.783 27.489C41.281 27.526 41.507 27.541 41.961 27.468 42.183 27.431 42.318 27.418 42.418 27.407 42.498 27.389 42.571 27.363 42.669 27.32A2.2 2.2 0 0 1 42.179 26.91L42.086 26.808H42.083C41.954 26.808 41.849 26.818 41.758 26.826 41.435 26.856 40.999 26.892 40.487 26.563 39.894 26.557 39.606 26.246 39.496 26.044 39.177 25.457 39.562 24.941 39.748 24.694A0.6 0.6 0 0 0 39.813 24.594C39.852 24.137 40.088 23.805 40.568 23.543 40.642 23.502 40.714 23.454 40.783 23.409 41.103 23.2 41.582 22.883 42.192 23.043 42.22 23.05 42.251 23.06 42.282 23.07 42.39 22.724 42.631 22.475 43 22.325 43.078 22.294 43.146 22.258 43.214 22.223 43.456 22.1 43.786 21.931 44.252 21.889 44.221 21.851 44.189 21.827 44.164 21.806 44.033 21.691 43.685 21.387 43.705 20.871 43.726 20.337 44.123 20.04 44.254 19.942L44.368 19.853C44.636 19.639 44.8 19.582 45.129 19.53L45.258 19.508C45.373 19.392 45.533 19.286 45.756 19.208L45.97 19.129C46.369 18.976 46.66 18.89 47.315 18.971 47.474 18.991 47.619 19.027 47.748 19.078 47.923 18.965 48.154 18.89 48.443 18.852 49.007 18.775 49.354 18.889 49.633 19.001L49.656 19.005C49.681 18.983 49.71 18.961 49.74 18.939 49.906 18.693 50.168 18.432 50.704 18.282L50.889 18.231 50.933 17.709 48.787 17.835A4 4 0 0 0 48.095 17.918C47.963 17.947 47.835 17.974 47.617 17.997 46.588 18.11 46.26 17.588 46.155 17.269 45.867 16.389 46.781 15.857 47.126 15.657 47.498 15.44 47.665 15.304 47.787 15.205 47.957 15.067 48.169 14.895 48.545 14.809 48.915 14.727 49.079 14.721 49.382 14.778L49.491 14.798C49.516 14.796 49.569 14.784 49.625 14.776 49.699 14.766 49.784 14.754 49.879 14.744A1.27 1.27 0 0 1 49.521 13.961 0.96 0.96 0 0 1 49.075 12.872C49.113 12.733 49.275 12.254 49.796 11.912 49.869 11.824 49.957 11.733 50.07 11.653A1 1 0 0 1 50.273 11.348 1 1 0 0 1 50.657 11.097 1 1 0 0 1 50.693 10.582C50.882 10.048 51.014 9.749 51.127 9.563 51.16 9.404 51.193 9.16 51.23 8.922 51.278 8.609 51.326 8.303 51.367 8.128 51.381 8.074 51.4 7.992 51.433 7.895 51.425 7.45 51.569 7.055 52.12 6.89 52.329 6.826 53.034 6.701 53.407 7.669A0.96 0.96 0 0 1 53.433 8.284L53.449 8.359C53.583 8.966 53.63 9.383 53.661 9.66L53.741 9.679C54.033 9.748 54.195 9.817 54.318 9.873 54.358 9.87 54.407 9.863 54.468 9.854 55.718 9.678 56.087 10.247 56.197 10.602 56.337 11.054 56.094 11.605 55.671 11.815 55.597 11.853 55.154 12.073 54.65 12.309 54.586 12.627 54.411 12.89 54.245 13.099 54.651 13.488 54.911 13.986 55.021 14.587 55.493 15.366 55.288 16.135 54.478 16.689 54.419 16.729 54.374 16.762 54.336 16.789 54.343 16.849 54.348 16.914 54.352 16.984 54.374 17.341 54.395 18.196 54.407 18.758 54.575 18.865 54.756 18.988 54.907 19.107 55.17 18.902 55.558 18.662 56.052 18.769 56.243 18.81 56.401 18.881 56.54 18.943 56.644 18.989 56.741 19.033 56.81 19.043 57.172 19.092 58.516 19.289 58.647 19.314 58.818 19.346 59.043 19.431 59.314 19.565A0.962 0.962 0 0 1 59.461 21.2C59.312 21.311 59.152 21.433 58.997 21.555 59.613 21.832 60.004 22.319 60.387 22.796L60.527 22.97C60.707 23.191 61.008 23.565 61.046 23.992 61.257 24.309 61.504 24.827 61.192 25.365L61.156 25.424C61.163 25.634 61.115 25.84 61.011 26.021 61.381 26.047 61.698 26.085 61.95 26.173 62.164 25.985 62.492 25.853 62.974 25.989 63.039 26.007 63.143 26.036 63.314 26.075 63.528 26.125 64.091 26.084 64.503 26.055 65.574 25.98 66.505 25.912 67.003 26.584 67.32 27.01 67.758 27.597 67.643 28.294A1.36 1.36 0 0 1 67.067 29.19C67.328 29.543 67.783 30.254 67.301 30.936 67.623 31.359 67.55 31.748 67.447 31.985 67.334 32.244 67.108 32.624 66.448 32.591A1 1 0 0 1 66.632 33.143 1 1 0 0 1 66.502 33.68C66.613 33.986 66.669 34.368 66.462 34.775 66.113 35.462 65.28 35.665 64.512 35.774 63.333 35.941 62.606 35.982 62.092 35.79 61.96 36.017 61.738 36.229 61.364 36.341 60.754 36.521 59.508 36.308 59.013 36.073A1 1 0 0 1 58.872 35.996L58.837 35.998 58.7 36.006C58.655 36.216 58.568 36.416 58.442 36.593A1.8 1.8 0 0 1 57.628 37.218C57.886 37.276 58.16 37.398 58.494 37.588 60.352 38.642 60.432 39.192 60.472 39.457 60.516 39.754 60.404 40.04 60.205 40.302 60.762 40.417 61.206 40.568 61.549 40.756L61.683 40.831C61.775 40.883 61.844 40.927 61.911 40.954 61.904 40.942 62.001 40.918 62.225 40.837 63.48 40.386 65.214 41.193 65.492 41.4 65.647 41.516 65.753 41.651 65.826 41.777 66.106 41.912 66.315 42.155 66.393 42.468 66.448 42.685 66.54 43.411 65.55 43.876A1 1 0 0 1 65.159 44.183L65.267 44.236C65.989 44.586 66.559 44.863 66.638 45.552 66.655 45.696 66.651 45.923 66.532 46.167 66.598 46.432 66.57 46.677 66.45 46.909 66.154 47.483 65.508 47.545 65.231 47.572L65.208 47.574C65.278 47.777 65.339 48.087 65.19 48.434 65.072 48.708 64.858 48.921 64.55 49.069 64.25 49.439 63.812 49.497 63.605 49.524L63.346 49.555 63.338 49.556C63.247 49.792 63.067 50.017 62.8 50.23 62.635 50.361 62.615 50.4 62.588 50.454A2 2 0 0 1 62.403 50.751C62.341 50.918 62.258 51.059 62.202 51.155 62.134 51.272 62.098 51.353 62.072 51.41 61.778 52.065 61.313 52.158 60.854 52.158 60.75 52.155 60.678 52.157 60.605 52.155L60.778 52.22C60.868 52.254 60.929 52.281 60.985 52.295 60.997 52.284 61.089 52.261 61.24 52.231 61.904 52.096 62.266 52.239 62.552 52.385A0.25 0.25 0 0 0 62.712 52.427C62.949 52.436 63.11 52.453 63.233 52.473 63.475 52.451 63.74 52.492 63.923 52.616 64.411 52.943 64.406 53.462 64.402 53.92L64.401 53.98 64.422 53.988 64.531 54.003C65.084 54.003 65.539 54.254 65.817 54.434 65.873 54.424 65.94 54.41 66.023 54.39 66.427 54.289 67.175 54.1 67.678 54.769 67.74 54.809 67.863 54.863 67.932 54.873L68.145 54.908C68.27 54.929 68.55 54.975 68.791 55.005 68.885 54.908 68.984 54.845 69.062 54.806 69.621 54.527 70.117 54.857 70.33 54.997 70.371 55.024 70.38 55.025 70.484 55.03 70.654 55.037 71.103 55.055 71.405 55.466 71.544 55.654 71.683 55.975 71.561 56.434 71.424 56.947 71.088 57.242 70.744 57.436A0.96 0.96 0 0 1 70.637 58.251C70.293 58.801 69.689 58.748 69.365 58.72 69.19 58.704 68.978 58.726 68.728 58.751 68.39 58.785 68.008 58.821 67.563 58.793 67.291 58.773 67.062 58.798 66.875 58.814 66.515 58.847 66.142 58.879 65.769 58.681 65.545 58.561 65.396 58.396 65.276 58.264 65.231 58.215 65.165 58.141 65.135 58.122A2.2 2.2 0 0 1 64.714 58.03 1.2 1.2 0 0 1 64.254 58.43C64.281 58.448 64.309 58.465 64.336 58.484L64.509 58.596C64.896 58.843 64.975 58.908 65.212 59.116L65.445 59.319C65.571 59.427 65.67 59.522 65.757 59.607 65.942 59.786 65.961 59.805 66.253 59.884 66.741 60.017 66.889 60.087 67.033 60.152 67.095 60.18 67.155 60.207 67.298 60.25 67.834 60.41 68.203 60.636 68.396 60.92A0.962 0.962 0 0 1 67.384 62.399C67.376 62.399 66.976 62.342 66.483 62.627 65.387 63.265 64.331 63.126 63.653 62.256A10 10 0 0 0 63.086 62.363C62.636 62.457 61.656 62.662 61.188 61.91 61.007 61.928 60.786 61.949 60.511 61.968 60.178 61.991 59.944 62.014 59.767 62.032 59.059 62.099 58.894 62.074 58.274 61.796 57.678 61.528 56.035 60.547 55.438 60.095 55.248 60.06 54.838 60.036 54.413 60.033L53.626 60.964A1 1 0 0 1 53.727 61.394 0.95 0.95 0 0 1 53.586 61.895C53.503 62.119 53.317 62.675 53.169 63.139A0.96 0.96 0 0 1 52.444 63.788C51.429 63.996 50.194 64.271 49.968 64.354 49.873 64.396 49.753 64.45 49.519 64.45M50.667 59.245L51.343 60.751A1 1 0 0 1 51.5 60.492L53.204 58.475A1 1 0 0 1 53.023 58.1C52.993 57.972 52.747 56.822 53.418 55.936 53.987 55.181 54.94 55.14 55.452 55.118 55.529 55.115 55.598 55.114 55.651 55.106 55.932 55.006 56.649 54.981 57.187 54.981 57.458 54.981 57.718 55.096 57.901 55.297 57.989 55.391 58.329 55.693 58.655 55.771 58.802 55.806 58.884 55.823 58.931 55.829 59.12 55.808 59.315 55.885 59.499 55.96 59.957 56.147 60.819 56.447 61.205 56.538 61.464 56.365 61.991 56.093 62.598 56.396 62.742 56.467 62.895 56.568 63.046 56.671 63.092 56.703 63.137 56.736 63.181 56.764L63.243 56.747C63.322 56.637 63.435 56.506 63.601 56.37 64.012 56.032 64.442 56.01 64.782 56.06 64.694 56.003 64.584 55.937 64.525 55.93H64.523A2 2 0 0 1 63.675 55.764 1.12 1.12 0 0 1 62.875 55.431C62.577 55.129 62.498 54.735 62.479 54.342A2.1 2.1 0 0 1 61.689 54.108L61.627 54.12C60.906 54.267 60.705 54.254 60.096 54.024A11 11 0 0 0 59.681 53.872 1 1 0 0 0 59.56 53.836C59.571 53.843 59.542 53.86 59.511 53.877 59.249 54.016 58.854 54.226 58.111 54.323 57.053 54.461 56.747 54.461 56.163 54.136A3 3 0 0 0 55.862 53.982C55.122 53.646 53.479 52.851 53.479 52.851A0.96 0.96 0 0 1 52.949 52.144C52.936 52.069 52.898 51.843 52.97 50.706 52.991 50.376 53.029 49.76 53.527 49.422 53.866 49.194 54.206 49.225 54.416 49.273A1.87 1.87 0 0 1 55.375 49.045L55.573 49.04C56.34 48.874 56.685 49.409 56.817 49.611 56.904 49.744 57.059 49.98 57.378 50.392 57.74 50.862 57.956 51.069 58.071 51.161 58.585 50.641 58.723 50.502 59.107 50.419 59.63 50.193 60.121 50.208 60.516 50.225L60.538 50.186C60.552 50.164 60.562 50.144 60.573 50.125 60.608 49.941 60.707 49.74 60.914 49.534 60.982 49.368 61.12 49.132 61.481 48.823 61.498 48.751 61.522 48.677 61.558 48.603A2.6 2.6 0 0 1 61.072 48.627C60.812 48.615 60.502 48.57 60.228 48.365A0.7 0.7 0 0 0 59.987 48.423C59.614 48.562 58.503 48.976 58.003 48.156A3 3 0 0 0 57.778 48.053L57.585 47.973C57.021 47.741 56.529 47.538 56.189 47.21A3 3 0 0 0 55.7 47.256C54.779 47.396 54.329 47.046 54.022 46.664 53.561 46.738 53.213 46.628 52.947 46.348 52.548 45.931 52.614 45.41 52.724 45.036A0.9 0.9 0 0 1 52.509 44.421C52.504 43.732 52.888 43.53 53.526 43.465V43.452L53.668 43.453C53.828 43.442 54.002 43.437 54.188 43.434 53.775 43.262 53.457 43.098 53.315 42.967 53.086 42.757 52.938 42.389 52.975 42.08 53.077 41.228 53.763 41.061 54.022 40.998 54.097 40.979 54.193 40.956 54.317 40.918 54.86 40.751 56.961 40.085 57.405 39.943 57.532 39.899 57.8 39.746 58.062 39.579A9 9 0 0 0 57.543 39.265 3 3 0 0 0 57.261 39.119 2 2 0 0 1 57.103 39.163C57.023 39.209 56.932 39.281 56.835 39.352 56.45 39.635 55.971 39.986 55.4 39.986 54.755 39.986 54.416 39.748 54.169 39.574 54.12 39.54 54.067 39.502 54.003 39.463A2.7 2.7 0 0 0 53.484 39.228 0.97 0.97 0 0 1 52.807 38.308V37.829C52.807 37.592 52.894 37.366 53.047 37.192A0.96 0.96 0 0 1 52.903 36.726L52.872 35.999A0.95 0.95 0 0 1 53.086 35.351C53.315 35.068 53.746 34.792 54.265 34.872 54.678 34.933 55.106 35.239 55.347 35.458 55.525 35.476 55.886 35.486 56.425 35.489 56.622 35.485 56.678 35.48 56.755 35.468A1.1 1.1 0 0 1 56.922 34.638C57.26 34.138 57.788 34.116 58.4 34.091L58.736 34.076C59.325 34.047 59.727 34.026 60.04 34.394 60.151 34.418 60.287 34.442 60.418 34.459L60.43 34.399C60.547 33.88 60.809 33.544 61.207 33.397 61.827 33.171 62.34 33.557 62.588 33.742 62.705 33.829 62.792 33.92 62.856 33.994 63.027 34 63.409 33.987 64.239 33.869 64.324 33.857 64.398 33.845 64.465 33.833A1.3 1.3 0 0 1 64.42 33.572 2 2 0 0 1 64.047 33.254C63.751 32.932 63.686 32.905 63.325 32.751 63.14 32.707 62.406 32.681 61.741 32.667A2.5 2.5 0 0 1 60.841 32.652L60.743 32.651C60.493 32.648 60.289 32.645 60.161 32.641 60.042 32.674 59.885 32.745 59.709 32.817 58.91 33.143 57.914 33.55 57.114 33.077A0.3 0.3 0 0 0 57.015 33.031C56.994 33.031 56.916 33.049 56.859 33.062A2.6 2.6 0 0 1 56.263 33.14C56.239 33.145 56.11 33.193 56.033 33.221 55.72 33.337 55.248 33.51 54.767 33.238A1.1 1.1 0 0 1 54.331 32.78C54.178 32.687 53.898 32.56 53.78 32.506 53.444 32.354 53.179 32.234 53.021 31.881 52.979 31.789 52.872 31.549 52.872 29.98 52.872 29.318 53.56 28.71 53.993 28.483A1.13 1.13 0 0 1 54.998 28.434C55.518 28.666 55.648 29.179 55.726 29.486 55.75 29.579 55.775 29.685 55.816 29.789 55.857 29.889 55.882 29.918 55.882 29.918 55.898 29.933 55.98 29.98 56.034 30.011 56.225 30.121 56.335 30.198 56.455 30.283 56.607 30.391 56.765 30.504 57.02 30.63 57.222 30.511 57.529 30.413 57.907 30.401H57.968L58.039 30.312 58.176 30.147C58.889 29.303 59.55 29.603 59.878 29.856A0.3 0.3 0 0 0 60.028 29.924C60.548 30.047 60.898 30.21 61.155 30.677 61.155 30.681 61.17 30.698 61.208 30.729L61.607 30.736 61.644 30.73A6 6 0 0 1 61.99 30.679C62.203 30.319 62.522 30.179 62.676 30.112A0.7 0.7 0 0 0 62.883 29.989C63.175 29.737 63.863 29.139 64.636 29.828 64.717 29.886 64.947 30.008 65.232 30.146 65.258 30.12 65.286 30.096 65.313 30.073A8 8 0 0 1 65.065 29.715C64.953 29.542 64.613 29.014 64.838 28.423 64.918 28.213 65.041 28.061 65.178 27.95 64.99 27.959 64.79 27.973 64.637 27.984 63.989 28.031 63.374 28.074 62.878 27.96L62.809 27.944C62.774 27.964 62.736 27.984 62.697 28.003 62.374 28.164 61.838 28.432 61.299 28.158A1 1 0 0 1 61.027 27.96 35 35 0 0 0 60.426 27.923C59.311 27.863 58.745 27.833 58.405 27.414A16 16 0 0 0 57.565 26.903C57.107 26.635 56.673 26.382 56.388 26.169 56.294 26.099 56.214 26.073 56.028 26.016 55.69 25.912 55.229 25.771 54.697 25.253 54.469 25.032 53.935 24.514 54.254 23.828 54.568 23.15 55.278 23.22 55.708 23.261 55.951 23.285 56.281 23.319 56.693 23.312 57.746 23.291 58.072 23.317 58.64 23.714 58.304 23.317 58.18 23.258 57.827 23.258 57.409 23.258 56.709 23.258 56.35 22.684 56.209 22.458 56.091 22.089 56.316 21.597 56.346 21.44 56.413 21.275 56.701 20.98L56.548 20.959A2.6 2.6 0 0 1 55.911 20.779 3 3 0 0 1 55.385 21.129C54.706 21.463 54.093 21.286 53.739 20.657 53.66 20.574 53.295 20.334 52.969 20.147A0.97 0.97 0 0 1 52.536 19.615 0.96 0.96 0 0 1 52.002 19.943C51.989 19.946 51.71 20.009 51.268 20.132 51.198 20.233 51.094 20.357 50.938 20.465 50.69 20.777 50.372 20.937 49.915 20.986 49.753 21.004 49.376 21.045 49.066 20.853 49.008 20.833 48.959 20.813 48.917 20.797 48.623 21.056 48.222 21.119 48.046 21.147 47.927 21.167 47.833 21.209 47.715 21.174 47.947 21.316 48.121 21.486 48.266 21.627 48.446 21.804 48.601 21.957 48.894 22.113L49.055 22.197A0.965 0.965 0 0 1 50.016 22.684C50.191 22.997 50.175 23.423 49.99 23.733A1.38 1.38 0 0 1 49.297 24.399 1.8 1.8 0 0 1 48.932 24.509C48.999 24.531 49.066 24.561 49.129 24.597 49.229 24.529 49.344 24.459 49.483 24.384 50.04 24.081 50.239 24.009 50.604 23.978A2 2 0 0 0 50.819 23.95C51.348 23.851 51.844 23.778 51.844 23.778A0.964 0.964 0 0 1 52.949 24.745C52.931 25.982 52.773 27.592 52.118 28.236L51.998 28.355C51.78 28.573 51.553 28.769 51.23 28.823 51.56 29.029 51.747 29.33 51.852 29.502 51.867 29.525 51.879 29.548 51.894 29.57 52.26 29.832 52.502 30.318 52.548 30.894 52.602 31.563 52.373 32.159 51.923 32.527A5.3 5.3 0 0 1 50.888 33.197 0.97 0.97 0 0 1 50.02 33.167L49.676 32.978C49.571 33.149 49.426 33.36 49.188 33.561 48.664 34.003 47.707 34.169 47.226 34.169 46.886 34.169 46.717 34.129 46.547 34.081 46.503 34.069 46.452 34.055 46.351 34.043A4 4 0 0 1 45.6 33.875C45.458 33.833 45.275 33.778 44.979 33.705 44.917 33.689 44.849 33.672 44.777 33.652A2.3 2.3 0 0 1 43.776 33.776 2 2 0 0 1 43.376 33.709C43.578 34.046 43.593 34.457 43.412 34.791A1 1 0 0 1 43.166 35.08 1.5 1.5 0 0 1 42.986 35.353C42.977 35.423 42.962 35.498 42.936 35.575 42.727 36.195 42.23 36.361 41.845 36.322A3 3 0 0 1 41.481 36.391L41.45 36.54 41.462 36.579 41.549 36.636A0.93 0.93 0 0 1 41.994 37.448L41.992 37.519C42.056 37.455 42.137 37.387 42.234 37.318 42.738 36.962 43.179 37.026 43.401 37.098A1 1 0 0 1 43.52 37.144C43.673 37.144 43.877 37.155 44.072 37.204 44.295 37.261 44.838 37.398 45.003 37.994 45.134 37.934 45.295 37.886 45.492 37.871 45.915 37.843 46.158 37.916 46.396 38.04 46.505 38.082 46.628 38.134 46.729 38.179H46.809C47.341 38.179 47.773 38.611 47.773 39.143V39.358A0.96 0.96 0 0 1 47.279 40.199L46.896 40.413A0.96 0.96 0 0 1 46.426 40.536H45.967A0.95 0.95 0 0 1 45.239 40.941S44.757 40.968 44.473 40.938A2 2 0 0 1 43.849 40.752H43.787A2.8 2.8 0 0 1 42.944 40.871H42.516C42.357 41.086 42.142 41.365 41.84 41.576 41.962 41.682 42.06 41.774 42.122 41.834 42.35 41.901 42.95 41.922 43.51 41.888L44.12 41.533A0.97 0.97 0 0 1 44.767 41.416L45.181 41.487C45.39 41.523 45.581 41.627 45.725 41.782 45.852 41.649 46.021 41.52 46.25 41.407 46.731 41.167 47.633 40.733 47.633 40.733A0.95 0.95 0 0 1 48.113 40.64L48.497 40.665A1 1 0 0 1 48.803 40.736L49.104 40.861A1.28 1.28 0 0 1 50.078 40.462C50.481 40.48 50.869 40.692 51.088 41.017 51.258 41.273 51.327 41.515 51.25 42.647A0.96 0.96 0 0 1 50.964 43.269 0.966 0.966 0 0 1 49.859 44.203 1.9 1.9 0 0 1 49.304 44.017 0.96 0.96 0 0 1 48.753 44.235C49.036 44.325 49.268 44.516 49.368 44.904 49.467 45.285 49.27 45.718 48.952 45.96 48.768 46.161 48.476 46.338 48.011 46.381 47.903 46.446 47.69 46.528 47.312 46.551 46.221 46.612 45.743 46.678 45.641 46.704 45.579 46.739 45.416 46.859 45.245 46.977L45.096 47.079C45.716 46.819 46.503 46.864 47.324 46.94 47.452 46.952 47.556 46.963 47.624 46.964 47.721 46.951 48.24 46.82 48.621 46.713 49.274 46.558 49.781 46.678 50.091 47.039 50.357 47.351 50.418 47.774 50.255 48.172 50.036 48.701 49.577 48.912 47.535 49.667 47.329 49.743 47.082 49.834 46.879 49.913 46.934 49.922 46.99 49.933 47.048 49.946 47.415 50.027 47.703 50.207 47.911 50.437A2 2 0 0 1 48.574 49.813C49.388 49.349 50.258 49.665 50.352 49.703A0.96 0.96 0 0 1 50.964 50.6C50.964 53.028 50.756 54.261 49.617 54.261 49.521 54.282 49.039 54.486 48.658 54.685A1 1 0 0 1 48.241 54.794S46.137 54.858 45.976 54.858C45.89 54.858 45.771 54.844 45.631 54.82 45.572 54.809 45.466 54.786 45.439 54.795 45.461 54.795 45.369 54.843 45.239 54.908 43.859 55.602 42.301 56.333 41.198 56.494 40.249 56.64 38.673 56.156 36.707 55.503L36.688 55.557A1 1 0 0 1 36.36 55.984C36.631 56.025 36.91 56.037 37.185 56.048 37.398 56.057 37.597 56.067 37.777 56.086L38.089 56.117C39.025 56.207 39.766 56.278 39.972 57.027 40.348 57.106 40.812 57.319 41.003 57.784A0.9 0.9 0 0 1 41.068 58.051 0.96 0.96 0 0 1 41.622 58.47C41.85 58.371 42.296 58.217 42.714 58.467A10 10 0 0 1 43.612 58.669C43.924 58.756 44.982 58.617 45.257 58.457 45.271 58.433 45.382 58.211 45.442 58.092 45.574 57.829 45.846 57.287 46.368 57.171 46.587 56.588 47.176 56.303 47.438 56.176 47.493 56.149 47.545 56.125 47.591 56.098 48.033 55.834 48.608 55.882 49.306 56.241L49.422 56.154A0.965 0.965 0 0 1 50.963 56.926V58.549A0.96 0.96 0 0 1 50.667 59.245M61.566 59.949C61.966 59.949 62.381 60.044 62.66 60.481L62.692 60.474C62.905 60.43 63.153 60.378 63.436 60.337 63.491 60.329 63.551 60.32 63.616 60.312L63.47 60.218 63.281 60.095C63.2 60.041 63.146 60.004 63.099 59.979 63.075 60 62.921 59.979 62.736 59.953 62.431 59.912 61.921 59.843 61.722 59.843 61.179 59.843 60.896 59.621 60.67 59.381 60.611 59.319 60.541 59.244 60.37 59.128A1 1 0 0 1 60.265 59.144C60.247 59.146 58.882 59.275 57.812 59.337 58.295 59.628 58.793 59.912 59.05 60.027 59.178 60.085 59.251 60.121 59.316 60.141A4 4 0 0 1 59.579 60.108C59.768 60.089 60.02 60.065 60.377 60.04 60.675 60.019 60.905 59.996 61.086 59.978 61.236 59.966 61.399 59.949 61.566 59.949M48.578 58.17L48.583 58.171 48.728 58.198 48.779 58.167A4 4 0 0 0 48.303 57.897L48.281 57.908 48.22 57.936A1.3 1.3 0 0 1 48.175 58.182 1 1 0 0 1 48.578 58.17M55.529 57.044C55.768 57.081 55.988 57.129 56.15 57.19L56.462 57.312C56.694 57.405 56.762 57.43 56.902 57.449 57 57.454 57.258 57.444 57.594 57.424A4 4 0 0 1 56.815 56.915C56.514 56.925 56.244 56.944 56.152 56.964 55.97 57.026 55.758 57.034 55.534 57.044zM65.928 56.364C66.261 56.511 66.49 56.735 66.642 56.899L66.704 56.893C66.951 56.871 67.295 56.84 67.694 56.868 67.858 56.879 68.016 56.875 68.177 56.864L67.832 56.809 67.646 56.779A2.7 2.7 0 0 1 66.464 56.265 4 4 0 0 1 65.928 56.364M45.716 52.881C45.815 52.892 45.902 52.908 45.972 52.92A97 97 0 0 0 47.839 52.876C47.29 52.774 46.842 52.365 46.658 52.176A1 1 0 0 1 46.501 51.96L46.486 51.988C46.281 52.396 46.022 52.696 45.716 52.881M54.863 51.377C55.252 51.564 55.779 51.816 56.215 52.02A16 16 0 0 1 55.409 50.972H55.39C55.301 50.979 55.254 51.007 55.186 51.047A1.4 1.4 0 0 1 54.873 51.184zM44.933 50.267C44.933 50.318 44.929 50.368 44.922 50.417 44.904 50.549 44.867 50.82 44.527 51.152L44.754 51.14 44.765 51.12C44.945 50.764 45.141 50.488 45.364 50.287A15 15 0 0 1 44.933 50.267M60.607 50.591A0.94 0.94 0 0 0 60.82 50.959C60.807 50.944 60.681 50.805 60.607 50.591M41.3 49.579C41.403 49.627 41.574 49.686 41.821 49.713 42.068 49.739 42.082 49.725 42.217 49.621 42.279 49.574 42.355 49.517 42.445 49.46A1.57 1.57 0 0 1 42.919 48.641C43.046 48.181 43.453 47.885 43.951 47.626 43.575 47.685 43.247 47.659 42.955 47.636L42.784 47.623C42.38 47.596 42.125 47.484 41.938 47.402 41.89 47.381 41.839 47.358 41.777 47.337A1.6 1.6 0 0 1 41.42 47.165 0.96 0.96 0 0 1 40.902 47.315H40.528A5 5 0 0 0 40.328 47.464C40.779 47.831 41.164 48.29 41.164 48.714A16 16 0 0 1 41.3 49.579M62.979 45.868C63.149 45.921 63.5 46.009 63.771 46.07 63.894 45.99 64.028 45.916 64.184 45.852L64.038 45.78A22 22 0 0 0 63.431 45.493C62.814 45.209 61.665 44.681 62.152 43.594 62.395 43.05 62.747 42.865 62.98 42.742L63.075 42.691 63.188 42.629A0.8 0.8 0 0 0 62.877 42.65C61.888 43.008 61.492 42.934 60.74 42.511L60.618 42.443C60.436 42.343 60.011 42.182 59.062 42.07 59.253 42.189 59.382 42.284 59.487 42.396 59.907 42.845 59.817 43.312 59.759 43.492 59.551 44.138 58.934 44.261 58.389 44.37L58.212 44.406C58.006 44.448 57.651 44.418 57.221 44.341 57.7 44.59 59.03 45.144 59.682 45.327 60.015 45.419 60.271 45.397 60.622 45.369 60.867 45.348 61.115 45.33 61.375 45.34L61.475 45.343C62.188 45.368 62.43 45.445 62.979 45.868M50.246 31.068L50.255 31.074C50.295 31.103 50.354 31.146 50.464 31.207 50.515 31.171 50.569 31.132 50.626 31.088L50.623 31.024A2 2 0 0 1 50.501 30.908 1.3 1.3 0 0 1 50.246 31.068M49.114 29.076C49.136 29.147 49.153 29.222 49.166 29.303 49.177 29.316 49.217 29.353 49.264 29.394L49.281 29.389C49.532 28.97 49.815 28.759 50.086 28.665A0.6 0.6 0 0 0 49.967 28.663L49.885 28.711C49.776 28.771 49.65 28.838 49.483 28.909 49.392 28.947 49.34 28.975 49.308 28.992A1.4 1.4 0 0 1 49.114 29.076M44.313 28.685C44.357 28.695 44.404 28.703 44.456 28.709 44.66 28.732 44.77 28.734 44.798 28.737 44.864 28.733 44.924 28.733 44.977 28.737 45.052 28.707 45.142 28.666 45.25 28.619L45.608 28.467C45.729 28.417 45.792 28.388 45.824 28.369 45.897 28.321 45.968 28.286 46.035 28.261 45.821 28.217 45.677 28.184 45.576 28.161L45.507 28.176C45.286 28.223 44.821 28.445 44.371 28.658zM48.204 26.721C48.529 26.801 48.703 26.88 48.925 27.038L48.958 27.019C49.413 26.77 49.785 26.666 50.561 26.78 50.642 26.793 50.715 26.805 50.781 26.818 50.834 26.676 50.896 26.316 50.944 25.877A4 4 0 0 1 50.764 25.895C50.693 25.915 50.591 25.97 50.4 26.075 50.177 26.196 50.096 26.271 50.017 26.344 49.798 26.547 49.519 26.764 48.981 26.764 48.872 26.764 48.634 26.747 48.395 26.622A3 3 0 0 1 48.226 26.693zM44.257 25.061C44.692 25.065 44.974 25.221 45.144 25.367L45.151 25.373H45.178C45.323 25.37 45.496 25.365 45.703 25.364 45.204 25.184 44.985 24.728 44.915 24.539 44.827 24.297 44.678 23.888 44.561 23.808 44.417 23.796 44.352 23.815 44.201 23.89L44.211 23.924C44.252 24.061 44.287 24.187 44.307 24.286 44.332 24.417 44.393 24.731 44.257 25.061M52.309 15.776A1 1 0 0 1 52.557 15.909C52.684 15.678 52.888 15.467 53.188 15.242A1 1 0 0 1 53.137 15.036C53.106 14.818 53.071 14.573 52.754 14.377 52.292 14.092 52.133 13.725 52.084 13.456A2.7 2.7 0 0 1 51.438 13.232L51.409 13.218 51.378 13.232C51.409 13.321 51.431 13.415 51.442 13.513 51.53 13.581 51.62 13.668 51.697 13.784 51.879 14.055 51.898 14.341 51.914 14.571 51.92 14.659 51.93 14.806 51.949 14.856 52.119 15.127 52.308 15.428 52.309 15.776"></path><path fill="white" d="M51.454 93.289A1.064 1.064 0 0 1 50.39 92.225V21.684A1.064 1.064 0 0 1 52.518 21.684V92.226A1.063 1.063 0 0 1 51.454 93.289"></path></svg></g></svg></g><g></g></svg></g><defs><mask></mask></defs><mask><g id="SvgjsG3718"><svg viewBox="0 0 159.70550238310224 247.2" height="247.2" width="159.70550238310224"><g><svg viewBox="0 0 395.52 612.2052311351351" height="247.2" width="159.70550238310224"><g transform="matrix(1,0,0,1,0,378.36739329729727)"><svg viewBox="0 0 395.52 233.8378378378378" height="233.8378378378378" width="395.52"><g id="SvgjsG3717"><svg viewBox="0 0 395.52 233.8378378378378" height="233.8378378378378" width="395.52" id="SvgjsSvg3716"><g><svg viewBox="0 0 395.52 233.8378378378378" height="233.8378378378378" width="395.52"><g transform="matrix(1,0,0,1,0,0)"><svg width="395.52" viewBox="1.8 -35 59.2 35" height="233.8378378378378" data-palette-color="url(#fa13d1c7-a4c9-4eb8-a040-9d95c591d4c9)"><path d="M11.55-19.55L20-19.75 21.35-23.1 23.1-22.6 23.1-13.75 21.7-13.25 20-16.55 11.55-16.8 11.55-3.2 17.25-2.25 16.75 0 1.8 0 1.8-1.75 6.55-3.2 6.55-31.8 1.8-32.75 2.3-35 27.85-35 27.85-26.55 25.35-26.05 23.75-32.25 11.55-32.25 11.55-19.55ZM57.5-3.1L61-2.25 60.5 0 49 0 49-1.75 52.55-2.85 49.35-11 35.6-11 32.55-3 36.6-2.25 36.1 0 26.05 0 26.05-1.75 29.6-3 41.65-35 45.3-35 57.5-3.1ZM42.45-29.2L36.6-13.75 48.35-13.75 42.45-29.2Z" opacity="1" transform="matrix(1,0,0,1,0,0)" fill="black" class="wordmark-text-0" id="SvgjsPath3715"></path></svg></g></svg></g></svg></g></svg></g><g transform="matrix(1,0,0,1,116.60029461265513,0)"><svg viewBox="0 0 162.31941077468971 323.16389189189186" height="323.16389189189186" width="162.31941077468971"><g><svg xmlns="http://www.w3.org/2000/svg" xmlns:xlink="http://www.w3.org/1999/xlink" version="1.1" x="8" y="0" viewBox="32.46942660583065 6.847059832981749 39.13844998689852 86.44194063806441" enable-background="new 0 0 100 100" xml:space="preserve" height="323.16389189189186" width="146.31941077468971" class="icon-icon-0" data-fill-palette-color="accent" id="SvgjsSvg3714"><path fill="black" d="M49.519 64.45C49.155 64.45 48.513 64.318 47.257 63.806H45.468A1 1 0 0 1 45.305 63.792C44.66 63.681 44.012 63.3 43.771 62.669A7.5 7.5 0 0 1 42.261 62.869C42.18 62.873 42.114 62.875 42.067 62.881 41.924 62.919 41.552 63.012 40.513 62.408A0.97 0.97 0 0 1 40.041 61.441 0.97 0.97 0 0 1 40.76 60.64C40.853 60.617 41.108 60.554 41.416 60.488L41.372 60.486A1.46 1.46 0 0 1 40.62 60.192C39.893 60.587 39.659 60.626 39.558 60.643 39.08 60.723 38.473 60.523 38.154 60.398A0.96 0.96 0 0 1 37.545 59.541C36.527 59.562 35.685 59.06 35.59 58.999A0.967 0.967 0 0 1 35.28 57.702 4 4 0 0 1 34.669 57.44 3.4 3.4 0 0 0 33.391 57.051C32.934 57.029 32.551 56.688 32.481 56.236S32.664 55.344 33.092 55.184L34.518 54.652C34.393 54.223 34.435 54.003 34.498 53.818 34.7 53.209 35.235 53.021 36.101 53.277 36.361 53.353 36.722 53.473 37.138 53.612 38.091 53.93 40.329 54.66 40.923 54.585 41.864 54.447 43.754 53.496 44.375 53.184L44.579 53.082C42.932 53.153 42.57 52.653 42.431 52.459A1.12 1.12 0 0 1 42.232 51.634C42.049 51.653 41.843 51.654 41.614 51.629 40.308 51.486 39.397 50.777 39.397 49.906 39.392 49.771 39.343 49.493 39.306 49.266L39.283 49.114A4 4 0 0 0 38.684 48.649C38.1 48.548 36.975 48.232 36.996 47.298 37 47.145 37.069 46.379 38.09 46.274 38.367 46.246 38.599 46.229 38.78 46.238 39.764 45.386 40.099 45.386 40.328 45.386H40.407A0.97 0.97 0 0 1 41.093 45.1H41.717C42.059 45.1 42.368 45.28 42.54 45.562 42.602 45.586 42.659 45.611 42.714 45.635 42.837 45.689 42.848 45.693 42.914 45.697L43.111 45.712C43.342 45.731 43.525 45.747 43.68 45.714L44.156 45.385C44.257 45.317 44.347 45.254 44.432 45.198A1.18 1.18 0 0 1 44.283 44.282C44.341 44.048 44.48 43.779 44.796 43.577A2 2 0 0 1 44.654 43.451L44.292 43.661A1 1 0 0 1 43.898 43.787C42.34 43.934 41.303 43.752 40.815 43.246 40.519 42.94 40.118 42.661 39.966 42.589 39.556 42.499 39.199 42.132 39.153 41.715 39.027 40.597 40.775 39.972 40.793 39.966A5 5 0 0 1 40.994 39.686L41.039 39.625A1 1 0 0 1 40.644 39.531C40.468 39.447 39.882 39.121 39.734 38.488A1.24 1.24 0 0 1 39.821 37.67 1 1 0 0 1 39.624 37.164 4 4 0 0 0 39.541 36.891 0.9 0.9 0 0 1 39.512 36.388L39.672 35.624A0.95 0.95 0 0 1 39.895 35.182L40.277 34.752A1 1 0 0 1 40.387 34.647 0.95 0.95 0 0 1 40.191 34.261L40.127 34.001A1 1 0 0 1 40.112 33.607L40.104 33.581C40.031 33.326 39.878 32.794 40.232 32.307 40.607 31.789 41.26 31.765 41.474 31.756 41.595 31.752 41.658 31.749 41.689 31.746L41.69 31.757C42.166 31.685 42.478 31.723 42.693 31.702 42.99 31.675 43.298 31.647 43.723 31.768 43.787 31.787 43.878 31.812 43.977 31.855 44.064 31.864 44.092 31.85 44.196 31.807 44.24 31.789 44.29 31.768 44.346 31.749A0.94 0.94 0 0 1 44.817 31.661 1 1 0 0 1 45.197 31.766C45.253 31.782 45.333 31.803 45.446 31.831 45.782 31.914 45.991 31.977 46.151 32.024 46.306 32.07 46.393 32.099 46.569 32.119 46.829 32.148 46.958 32.185 47.07 32.217A0.6 0.6 0 0 0 47.225 32.233C47.472 32.233 47.866 32.123 47.972 32.057A3 3 0 0 0 48.076 31.89C48.121 31.816 48.167 31.74 48.22 31.661A0.96 0.96 0 0 1 48.441 31.188 1.3 1.3 0 0 1 48.221 31.035C48.052 30.891 47.818 30.692 47.621 30.425A2 2 0 0 1 47.282 30.404 2.6 2.6 0 0 1 46.494 30.182C46.451 30.201 46.403 30.222 46.349 30.244L46.014 30.387C45.535 30.593 45.173 30.747 44.779 30.662L44.644 30.658 44.613 30.722A1.1 1.1 0 0 1 43.931 31.255C43.26 31.463 42.705 31.397 42.256 31.068 42.195 31.062 42.161 31.071 42.113 31.073 41.937 31.078 41.719 31.086 41.471 31.043 41.353 31.023 41.155 31.027 40.946 31.024 40.242 31.014 39.677 31.007 39.282 30.685L39.189 30.642C38.879 30.499 38.237 30.202 38.191 29.488 38.174 29.227 38.239 28.732 38.857 28.343 39.062 27.711 39.54 27.413 40.352 27.46L40.783 27.489C41.281 27.526 41.507 27.541 41.961 27.468 42.183 27.431 42.318 27.418 42.418 27.407 42.498 27.389 42.571 27.363 42.669 27.32A2.2 2.2 0 0 1 42.179 26.91L42.086 26.808H42.083C41.954 26.808 41.849 26.818 41.758 26.826 41.435 26.856 40.999 26.892 40.487 26.563 39.894 26.557 39.606 26.246 39.496 26.044 39.177 25.457 39.562 24.941 39.748 24.694A0.6 0.6 0 0 0 39.813 24.594C39.852 24.137 40.088 23.805 40.568 23.543 40.642 23.502 40.714 23.454 40.783 23.409 41.103 23.2 41.582 22.883 42.192 23.043 42.22 23.05 42.251 23.06 42.282 23.07 42.39 22.724 42.631 22.475 43 22.325 43.078 22.294 43.146 22.258 43.214 22.223 43.456 22.1 43.786 21.931 44.252 21.889 44.221 21.851 44.189 21.827 44.164 21.806 44.033 21.691 43.685 21.387 43.705 20.871 43.726 20.337 44.123 20.04 44.254 19.942L44.368 19.853C44.636 19.639 44.8 19.582 45.129 19.53L45.258 19.508C45.373 19.392 45.533 19.286 45.756 19.208L45.97 19.129C46.369 18.976 46.66 18.89 47.315 18.971 47.474 18.991 47.619 19.027 47.748 19.078 47.923 18.965 48.154 18.89 48.443 18.852 49.007 18.775 49.354 18.889 49.633 19.001L49.656 19.005C49.681 18.983 49.71 18.961 49.74 18.939 49.906 18.693 50.168 18.432 50.704 18.282L50.889 18.231 50.933 17.709 48.787 17.835A4 4 0 0 0 48.095 17.918C47.963 17.947 47.835 17.974 47.617 17.997 46.588 18.11 46.26 17.588 46.155 17.269 45.867 16.389 46.781 15.857 47.126 15.657 47.498 15.44 47.665 15.304 47.787 15.205 47.957 15.067 48.169 14.895 48.545 14.809 48.915 14.727 49.079 14.721 49.382 14.778L49.491 14.798C49.516 14.796 49.569 14.784 49.625 14.776 49.699 14.766 49.784 14.754 49.879 14.744A1.27 1.27 0 0 1 49.521 13.961 0.96 0.96 0 0 1 49.075 12.872C49.113 12.733 49.275 12.254 49.796 11.912 49.869 11.824 49.957 11.733 50.07 11.653A1 1 0 0 1 50.273 11.348 1 1 0 0 1 50.657 11.097 1 1 0 0 1 50.693 10.582C50.882 10.048 51.014 9.749 51.127 9.563 51.16 9.404 51.193 9.16 51.23 8.922 51.278 8.609 51.326 8.303 51.367 8.128 51.381 8.074 51.4 7.992 51.433 7.895 51.425 7.45 51.569 7.055 52.12 6.89 52.329 6.826 53.034 6.701 53.407 7.669A0.96 0.96 0 0 1 53.433 8.284L53.449 8.359C53.583 8.966 53.63 9.383 53.661 9.66L53.741 9.679C54.033 9.748 54.195 9.817 54.318 9.873 54.358 9.87 54.407 9.863 54.468 9.854 55.718 9.678 56.087 10.247 56.197 10.602 56.337 11.054 56.094 11.605 55.671 11.815 55.597 11.853 55.154 12.073 54.65 12.309 54.586 12.627 54.411 12.89 54.245 13.099 54.651 13.488 54.911 13.986 55.021 14.587 55.493 15.366 55.288 16.135 54.478 16.689 54.419 16.729 54.374 16.762 54.336 16.789 54.343 16.849 54.348 16.914 54.352 16.984 54.374 17.341 54.395 18.196 54.407 18.758 54.575 18.865 54.756 18.988 54.907 19.107 55.17 18.902 55.558 18.662 56.052 18.769 56.243 18.81 56.401 18.881 56.54 18.943 56.644 18.989 56.741 19.033 56.81 19.043 57.172 19.092 58.516 19.289 58.647 19.314 58.818 19.346 59.043 19.431 59.314 19.565A0.962 0.962 0 0 1 59.461 21.2C59.312 21.311 59.152 21.433 58.997 21.555 59.613 21.832 60.004 22.319 60.387 22.796L60.527 22.97C60.707 23.191 61.008 23.565 61.046 23.992 61.257 24.309 61.504 24.827 61.192 25.365L61.156 25.424C61.163 25.634 61.115 25.84 61.011 26.021 61.381 26.047 61.698 26.085 61.95 26.173 62.164 25.985 62.492 25.853 62.974 25.989 63.039 26.007 63.143 26.036 63.314 26.075 63.528 26.125 64.091 26.084 64.503 26.055 65.574 25.98 66.505 25.912 67.003 26.584 67.32 27.01 67.758 27.597 67.643 28.294A1.36 1.36 0 0 1 67.067 29.19C67.328 29.543 67.783 30.254 67.301 30.936 67.623 31.359 67.55 31.748 67.447 31.985 67.334 32.244 67.108 32.624 66.448 32.591A1 1 0 0 1 66.632 33.143 1 1 0 0 1 66.502 33.68C66.613 33.986 66.669 34.368 66.462 34.775 66.113 35.462 65.28 35.665 64.512 35.774 63.333 35.941 62.606 35.982 62.092 35.79 61.96 36.017 61.738 36.229 61.364 36.341 60.754 36.521 59.508 36.308 59.013 36.073A1 1 0 0 1 58.872 35.996L58.837 35.998 58.7 36.006C58.655 36.216 58.568 36.416 58.442 36.593A1.8 1.8 0 0 1 57.628 37.218C57.886 37.276 58.16 37.398 58.494 37.588 60.352 38.642 60.432 39.192 60.472 39.457 60.516 39.754 60.404 40.04 60.205 40.302 60.762 40.417 61.206 40.568 61.549 40.756L61.683 40.831C61.775 40.883 61.844 40.927 61.911 40.954 61.904 40.942 62.001 40.918 62.225 40.837 63.48 40.386 65.214 41.193 65.492 41.4 65.647 41.516 65.753 41.651 65.826 41.777 66.106 41.912 66.315 42.155 66.393 42.468 66.448 42.685 66.54 43.411 65.55 43.876A1 1 0 0 1 65.159 44.183L65.267 44.236C65.989 44.586 66.559 44.863 66.638 45.552 66.655 45.696 66.651 45.923 66.532 46.167 66.598 46.432 66.57 46.677 66.45 46.909 66.154 47.483 65.508 47.545 65.231 47.572L65.208 47.574C65.278 47.777 65.339 48.087 65.19 48.434 65.072 48.708 64.858 48.921 64.55 49.069 64.25 49.439 63.812 49.497 63.605 49.524L63.346 49.555 63.338 49.556C63.247 49.792 63.067 50.017 62.8 50.23 62.635 50.361 62.615 50.4 62.588 50.454A2 2 0 0 1 62.403 50.751C62.341 50.918 62.258 51.059 62.202 51.155 62.134 51.272 62.098 51.353 62.072 51.41 61.778 52.065 61.313 52.158 60.854 52.158 60.75 52.155 60.678 52.157 60.605 52.155L60.778 52.22C60.868 52.254 60.929 52.281 60.985 52.295 60.997 52.284 61.089 52.261 61.24 52.231 61.904 52.096 62.266 52.239 62.552 52.385A0.25 0.25 0 0 0 62.712 52.427C62.949 52.436 63.11 52.453 63.233 52.473 63.475 52.451 63.74 52.492 63.923 52.616 64.411 52.943 64.406 53.462 64.402 53.92L64.401 53.98 64.422 53.988 64.531 54.003C65.084 54.003 65.539 54.254 65.817 54.434 65.873 54.424 65.94 54.41 66.023 54.39 66.427 54.289 67.175 54.1 67.678 54.769 67.74 54.809 67.863 54.863 67.932 54.873L68.145 54.908C68.27 54.929 68.55 54.975 68.791 55.005 68.885 54.908 68.984 54.845 69.062 54.806 69.621 54.527 70.117 54.857 70.33 54.997 70.371 55.024 70.38 55.025 70.484 55.03 70.654 55.037 71.103 55.055 71.405 55.466 71.544 55.654 71.683 55.975 71.561 56.434 71.424 56.947 71.088 57.242 70.744 57.436A0.96 0.96 0 0 1 70.637 58.251C70.293 58.801 69.689 58.748 69.365 58.72 69.19 58.704 68.978 58.726 68.728 58.751 68.39 58.785 68.008 58.821 67.563 58.793 67.291 58.773 67.062 58.798 66.875 58.814 66.515 58.847 66.142 58.879 65.769 58.681 65.545 58.561 65.396 58.396 65.276 58.264 65.231 58.215 65.165 58.141 65.135 58.122A2.2 2.2 0 0 1 64.714 58.03 1.2 1.2 0 0 1 64.254 58.43C64.281 58.448 64.309 58.465 64.336 58.484L64.509 58.596C64.896 58.843 64.975 58.908 65.212 59.116L65.445 59.319C65.571 59.427 65.67 59.522 65.757 59.607 65.942 59.786 65.961 59.805 66.253 59.884 66.741 60.017 66.889 60.087 67.033 60.152 67.095 60.18 67.155 60.207 67.298 60.25 67.834 60.41 68.203 60.636 68.396 60.92A0.962 0.962 0 0 1 67.384 62.399C67.376 62.399 66.976 62.342 66.483 62.627 65.387 63.265 64.331 63.126 63.653 62.256A10 10 0 0 0 63.086 62.363C62.636 62.457 61.656 62.662 61.188 61.91 61.007 61.928 60.786 61.949 60.511 61.968 60.178 61.991 59.944 62.014 59.767 62.032 59.059 62.099 58.894 62.074 58.274 61.796 57.678 61.528 56.035 60.547 55.438 60.095 55.248 60.06 54.838 60.036 54.413 60.033L53.626 60.964A1 1 0 0 1 53.727 61.394 0.95 0.95 0 0 1 53.586 61.895C53.503 62.119 53.317 62.675 53.169 63.139A0.96 0.96 0 0 1 52.444 63.788C51.429 63.996 50.194 64.271 49.968 64.354 49.873 64.396 49.753 64.45 49.519 64.45M50.667 59.245L51.343 60.751A1 1 0 0 1 51.5 60.492L53.204 58.475A1 1 0 0 1 53.023 58.1C52.993 57.972 52.747 56.822 53.418 55.936 53.987 55.181 54.94 55.14 55.452 55.118 55.529 55.115 55.598 55.114 55.651 55.106 55.932 55.006 56.649 54.981 57.187 54.981 57.458 54.981 57.718 55.096 57.901 55.297 57.989 55.391 58.329 55.693 58.655 55.771 58.802 55.806 58.884 55.823 58.931 55.829 59.12 55.808 59.315 55.885 59.499 55.96 59.957 56.147 60.819 56.447 61.205 56.538 61.464 56.365 61.991 56.093 62.598 56.396 62.742 56.467 62.895 56.568 63.046 56.671 63.092 56.703 63.137 56.736 63.181 56.764L63.243 56.747C63.322 56.637 63.435 56.506 63.601 56.37 64.012 56.032 64.442 56.01 64.782 56.06 64.694 56.003 64.584 55.937 64.525 55.93H64.523A2 2 0 0 1 63.675 55.764 1.12 1.12 0 0 1 62.875 55.431C62.577 55.129 62.498 54.735 62.479 54.342A2.1 2.1 0 0 1 61.689 54.108L61.627 54.12C60.906 54.267 60.705 54.254 60.096 54.024A11 11 0 0 0 59.681 53.872 1 1 0 0 0 59.56 53.836C59.571 53.843 59.542 53.86 59.511 53.877 59.249 54.016 58.854 54.226 58.111 54.323 57.053 54.461 56.747 54.461 56.163 54.136A3 3 0 0 0 55.862 53.982C55.122 53.646 53.479 52.851 53.479 52.851A0.96 0.96 0 0 1 52.949 52.144C52.936 52.069 52.898 51.843 52.97 50.706 52.991 50.376 53.029 49.76 53.527 49.422 53.866 49.194 54.206 49.225 54.416 49.273A1.87 1.87 0 0 1 55.375 49.045L55.573 49.04C56.34 48.874 56.685 49.409 56.817 49.611 56.904 49.744 57.059 49.98 57.378 50.392 57.74 50.862 57.956 51.069 58.071 51.161 58.585 50.641 58.723 50.502 59.107 50.419 59.63 50.193 60.121 50.208 60.516 50.225L60.538 50.186C60.552 50.164 60.562 50.144 60.573 50.125 60.608 49.941 60.707 49.74 60.914 49.534 60.982 49.368 61.12 49.132 61.481 48.823 61.498 48.751 61.522 48.677 61.558 48.603A2.6 2.6 0 0 1 61.072 48.627C60.812 48.615 60.502 48.57 60.228 48.365A0.7 0.7 0 0 0 59.987 48.423C59.614 48.562 58.503 48.976 58.003 48.156A3 3 0 0 0 57.778 48.053L57.585 47.973C57.021 47.741 56.529 47.538 56.189 47.21A3 3 0 0 0 55.7 47.256C54.779 47.396 54.329 47.046 54.022 46.664 53.561 46.738 53.213 46.628 52.947 46.348 52.548 45.931 52.614 45.41 52.724 45.036A0.9 0.9 0 0 1 52.509 44.421C52.504 43.732 52.888 43.53 53.526 43.465V43.452L53.668 43.453C53.828 43.442 54.002 43.437 54.188 43.434 53.775 43.262 53.457 43.098 53.315 42.967 53.086 42.757 52.938 42.389 52.975 42.08 53.077 41.228 53.763 41.061 54.022 40.998 54.097 40.979 54.193 40.956 54.317 40.918 54.86 40.751 56.961 40.085 57.405 39.943 57.532 39.899 57.8 39.746 58.062 39.579A9 9 0 0 0 57.543 39.265 3 3 0 0 0 57.261 39.119 2 2 0 0 1 57.103 39.163C57.023 39.209 56.932 39.281 56.835 39.352 56.45 39.635 55.971 39.986 55.4 39.986 54.755 39.986 54.416 39.748 54.169 39.574 54.12 39.54 54.067 39.502 54.003 39.463A2.7 2.7 0 0 0 53.484 39.228 0.97 0.97 0 0 1 52.807 38.308V37.829C52.807 37.592 52.894 37.366 53.047 37.192A0.96 0.96 0 0 1 52.903 36.726L52.872 35.999A0.95 0.95 0 0 1 53.086 35.351C53.315 35.068 53.746 34.792 54.265 34.872 54.678 34.933 55.106 35.239 55.347 35.458 55.525 35.476 55.886 35.486 56.425 35.489 56.622 35.485 56.678 35.48 56.755 35.468A1.1 1.1 0 0 1 56.922 34.638C57.26 34.138 57.788 34.116 58.4 34.091L58.736 34.076C59.325 34.047 59.727 34.026 60.04 34.394 60.151 34.418 60.287 34.442 60.418 34.459L60.43 34.399C60.547 33.88 60.809 33.544 61.207 33.397 61.827 33.171 62.34 33.557 62.588 33.742 62.705 33.829 62.792 33.92 62.856 33.994 63.027 34 63.409 33.987 64.239 33.869 64.324 33.857 64.398 33.845 64.465 33.833A1.3 1.3 0 0 1 64.42 33.572 2 2 0 0 1 64.047 33.254C63.751 32.932 63.686 32.905 63.325 32.751 63.14 32.707 62.406 32.681 61.741 32.667A2.5 2.5 0 0 1 60.841 32.652L60.743 32.651C60.493 32.648 60.289 32.645 60.161 32.641 60.042 32.674 59.885 32.745 59.709 32.817 58.91 33.143 57.914 33.55 57.114 33.077A0.3 0.3 0 0 0 57.015 33.031C56.994 33.031 56.916 33.049 56.859 33.062A2.6 2.6 0 0 1 56.263 33.14C56.239 33.145 56.11 33.193 56.033 33.221 55.72 33.337 55.248 33.51 54.767 33.238A1.1 1.1 0 0 1 54.331 32.78C54.178 32.687 53.898 32.56 53.78 32.506 53.444 32.354 53.179 32.234 53.021 31.881 52.979 31.789 52.872 31.549 52.872 29.98 52.872 29.318 53.56 28.71 53.993 28.483A1.13 1.13 0 0 1 54.998 28.434C55.518 28.666 55.648 29.179 55.726 29.486 55.75 29.579 55.775 29.685 55.816 29.789 55.857 29.889 55.882 29.918 55.882 29.918 55.898 29.933 55.98 29.98 56.034 30.011 56.225 30.121 56.335 30.198 56.455 30.283 56.607 30.391 56.765 30.504 57.02 30.63 57.222 30.511 57.529 30.413 57.907 30.401H57.968L58.039 30.312 58.176 30.147C58.889 29.303 59.55 29.603 59.878 29.856A0.3 0.3 0 0 0 60.028 29.924C60.548 30.047 60.898 30.21 61.155 30.677 61.155 30.681 61.17 30.698 61.208 30.729L61.607 30.736 61.644 30.73A6 6 0 0 1 61.99 30.679C62.203 30.319 62.522 30.179 62.676 30.112A0.7 0.7 0 0 0 62.883 29.989C63.175 29.737 63.863 29.139 64.636 29.828 64.717 29.886 64.947 30.008 65.232 30.146 65.258 30.12 65.286 30.096 65.313 30.073A8 8 0 0 1 65.065 29.715C64.953 29.542 64.613 29.014 64.838 28.423 64.918 28.213 65.041 28.061 65.178 27.95 64.99 27.959 64.79 27.973 64.637 27.984 63.989 28.031 63.374 28.074 62.878 27.96L62.809 27.944C62.774 27.964 62.736 27.984 62.697 28.003 62.374 28.164 61.838 28.432 61.299 28.158A1 1 0 0 1 61.027 27.96 35 35 0 0 0 60.426 27.923C59.311 27.863 58.745 27.833 58.405 27.414A16 16 0 0 0 57.565 26.903C57.107 26.635 56.673 26.382 56.388 26.169 56.294 26.099 56.214 26.073 56.028 26.016 55.69 25.912 55.229 25.771 54.697 25.253 54.469 25.032 53.935 24.514 54.254 23.828 54.568 23.15 55.278 23.22 55.708 23.261 55.951 23.285 56.281 23.319 56.693 23.312 57.746 23.291 58.072 23.317 58.64 23.714 58.304 23.317 58.18 23.258 57.827 23.258 57.409 23.258 56.709 23.258 56.35 22.684 56.209 22.458 56.091 22.089 56.316 21.597 56.346 21.44 56.413 21.275 56.701 20.98L56.548 20.959A2.6 2.6 0 0 1 55.911 20.779 3 3 0 0 1 55.385 21.129C54.706 21.463 54.093 21.286 53.739 20.657 53.66 20.574 53.295 20.334 52.969 20.147A0.97 0.97 0 0 1 52.536 19.615 0.96 0.96 0 0 1 52.002 19.943C51.989 19.946 51.71 20.009 51.268 20.132 51.198 20.233 51.094 20.357 50.938 20.465 50.69 20.777 50.372 20.937 49.915 20.986 49.753 21.004 49.376 21.045 49.066 20.853 49.008 20.833 48.959 20.813 48.917 20.797 48.623 21.056 48.222 21.119 48.046 21.147 47.927 21.167 47.833 21.209 47.715 21.174 47.947 21.316 48.121 21.486 48.266 21.627 48.446 21.804 48.601 21.957 48.894 22.113L49.055 22.197A0.965 0.965 0 0 1 50.016 22.684C50.191 22.997 50.175 23.423 49.99 23.733A1.38 1.38 0 0 1 49.297 24.399 1.8 1.8 0 0 1 48.932 24.509C48.999 24.531 49.066 24.561 49.129 24.597 49.229 24.529 49.344 24.459 49.483 24.384 50.04 24.081 50.239 24.009 50.604 23.978A2 2 0 0 0 50.819 23.95C51.348 23.851 51.844 23.778 51.844 23.778A0.964 0.964 0 0 1 52.949 24.745C52.931 25.982 52.773 27.592 52.118 28.236L51.998 28.355C51.78 28.573 51.553 28.769 51.23 28.823 51.56 29.029 51.747 29.33 51.852 29.502 51.867 29.525 51.879 29.548 51.894 29.57 52.26 29.832 52.502 30.318 52.548 30.894 52.602 31.563 52.373 32.159 51.923 32.527A5.3 5.3 0 0 1 50.888 33.197 0.97 0.97 0 0 1 50.02 33.167L49.676 32.978C49.571 33.149 49.426 33.36 49.188 33.561 48.664 34.003 47.707 34.169 47.226 34.169 46.886 34.169 46.717 34.129 46.547 34.081 46.503 34.069 46.452 34.055 46.351 34.043A4 4 0 0 1 45.6 33.875C45.458 33.833 45.275 33.778 44.979 33.705 44.917 33.689 44.849 33.672 44.777 33.652A2.3 2.3 0 0 1 43.776 33.776 2 2 0 0 1 43.376 33.709C43.578 34.046 43.593 34.457 43.412 34.791A1 1 0 0 1 43.166 35.08 1.5 1.5 0 0 1 42.986 35.353C42.977 35.423 42.962 35.498 42.936 35.575 42.727 36.195 42.23 36.361 41.845 36.322A3 3 0 0 1 41.481 36.391L41.45 36.54 41.462 36.579 41.549 36.636A0.93 0.93 0 0 1 41.994 37.448L41.992 37.519C42.056 37.455 42.137 37.387 42.234 37.318 42.738 36.962 43.179 37.026 43.401 37.098A1 1 0 0 1 43.52 37.144C43.673 37.144 43.877 37.155 44.072 37.204 44.295 37.261 44.838 37.398 45.003 37.994 45.134 37.934 45.295 37.886 45.492 37.871 45.915 37.843 46.158 37.916 46.396 38.04 46.505 38.082 46.628 38.134 46.729 38.179H46.809C47.341 38.179 47.773 38.611 47.773 39.143V39.358A0.96 0.96 0 0 1 47.279 40.199L46.896 40.413A0.96 0.96 0 0 1 46.426 40.536H45.967A0.95 0.95 0 0 1 45.239 40.941S44.757 40.968 44.473 40.938A2 2 0 0 1 43.849 40.752H43.787A2.8 2.8 0 0 1 42.944 40.871H42.516C42.357 41.086 42.142 41.365 41.84 41.576 41.962 41.682 42.06 41.774 42.122 41.834 42.35 41.901 42.95 41.922 43.51 41.888L44.12 41.533A0.97 0.97 0 0 1 44.767 41.416L45.181 41.487C45.39 41.523 45.581 41.627 45.725 41.782 45.852 41.649 46.021 41.52 46.25 41.407 46.731 41.167 47.633 40.733 47.633 40.733A0.95 0.95 0 0 1 48.113 40.64L48.497 40.665A1 1 0 0 1 48.803 40.736L49.104 40.861A1.28 1.28 0 0 1 50.078 40.462C50.481 40.48 50.869 40.692 51.088 41.017 51.258 41.273 51.327 41.515 51.25 42.647A0.96 0.96 0 0 1 50.964 43.269 0.966 0.966 0 0 1 49.859 44.203 1.9 1.9 0 0 1 49.304 44.017 0.96 0.96 0 0 1 48.753 44.235C49.036 44.325 49.268 44.516 49.368 44.904 49.467 45.285 49.27 45.718 48.952 45.96 48.768 46.161 48.476 46.338 48.011 46.381 47.903 46.446 47.69 46.528 47.312 46.551 46.221 46.612 45.743 46.678 45.641 46.704 45.579 46.739 45.416 46.859 45.245 46.977L45.096 47.079C45.716 46.819 46.503 46.864 47.324 46.94 47.452 46.952 47.556 46.963 47.624 46.964 47.721 46.951 48.24 46.82 48.621 46.713 49.274 46.558 49.781 46.678 50.091 47.039 50.357 47.351 50.418 47.774 50.255 48.172 50.036 48.701 49.577 48.912 47.535 49.667 47.329 49.743 47.082 49.834 46.879 49.913 46.934 49.922 46.99 49.933 47.048 49.946 47.415 50.027 47.703 50.207 47.911 50.437A2 2 0 0 1 48.574 49.813C49.388 49.349 50.258 49.665 50.352 49.703A0.96 0.96 0 0 1 50.964 50.6C50.964 53.028 50.756 54.261 49.617 54.261 49.521 54.282 49.039 54.486 48.658 54.685A1 1 0 0 1 48.241 54.794S46.137 54.858 45.976 54.858C45.89 54.858 45.771 54.844 45.631 54.82 45.572 54.809 45.466 54.786 45.439 54.795 45.461 54.795 45.369 54.843 45.239 54.908 43.859 55.602 42.301 56.333 41.198 56.494 40.249 56.64 38.673 56.156 36.707 55.503L36.688 55.557A1 1 0 0 1 36.36 55.984C36.631 56.025 36.91 56.037 37.185 56.048 37.398 56.057 37.597 56.067 37.777 56.086L38.089 56.117C39.025 56.207 39.766 56.278 39.972 57.027 40.348 57.106 40.812 57.319 41.003 57.784A0.9 0.9 0 0 1 41.068 58.051 0.96 0.96 0 0 1 41.622 58.47C41.85 58.371 42.296 58.217 42.714 58.467A10 10 0 0 1 43.612 58.669C43.924 58.756 44.982 58.617 45.257 58.457 45.271 58.433 45.382 58.211 45.442 58.092 45.574 57.829 45.846 57.287 46.368 57.171 46.587 56.588 47.176 56.303 47.438 56.176 47.493 56.149 47.545 56.125 47.591 56.098 48.033 55.834 48.608 55.882 49.306 56.241L49.422 56.154A0.965 0.965 0 0 1 50.963 56.926V58.549A0.96 0.96 0 0 1 50.667 59.245M61.566 59.949C61.966 59.949 62.381 60.044 62.66 60.481L62.692 60.474C62.905 60.43 63.153 60.378 63.436 60.337 63.491 60.329 63.551 60.32 63.616 60.312L63.47 60.218 63.281 60.095C63.2 60.041 63.146 60.004 63.099 59.979 63.075 60 62.921 59.979 62.736 59.953 62.431 59.912 61.921 59.843 61.722 59.843 61.179 59.843 60.896 59.621 60.67 59.381 60.611 59.319 60.541 59.244 60.37 59.128A1 1 0 0 1 60.265 59.144C60.247 59.146 58.882 59.275 57.812 59.337 58.295 59.628 58.793 59.912 59.05 60.027 59.178 60.085 59.251 60.121 59.316 60.141A4 4 0 0 1 59.579 60.108C59.768 60.089 60.02 60.065 60.377 60.04 60.675 60.019 60.905 59.996 61.086 59.978 61.236 59.966 61.399 59.949 61.566 59.949M48.578 58.17L48.583 58.171 48.728 58.198 48.779 58.167A4 4 0 0 0 48.303 57.897L48.281 57.908 48.22 57.936A1.3 1.3 0 0 1 48.175 58.182 1 1 0 0 1 48.578 58.17M55.529 57.044C55.768 57.081 55.988 57.129 56.15 57.19L56.462 57.312C56.694 57.405 56.762 57.43 56.902 57.449 57 57.454 57.258 57.444 57.594 57.424A4 4 0 0 1 56.815 56.915C56.514 56.925 56.244 56.944 56.152 56.964 55.97 57.026 55.758 57.034 55.534 57.044zM65.928 56.364C66.261 56.511 66.49 56.735 66.642 56.899L66.704 56.893C66.951 56.871 67.295 56.84 67.694 56.868 67.858 56.879 68.016 56.875 68.177 56.864L67.832 56.809 67.646 56.779A2.7 2.7 0 0 1 66.464 56.265 4 4 0 0 1 65.928 56.364M45.716 52.881C45.815 52.892 45.902 52.908 45.972 52.92A97 97 0 0 0 47.839 52.876C47.29 52.774 46.842 52.365 46.658 52.176A1 1 0 0 1 46.501 51.96L46.486 51.988C46.281 52.396 46.022 52.696 45.716 52.881M54.863 51.377C55.252 51.564 55.779 51.816 56.215 52.02A16 16 0 0 1 55.409 50.972H55.39C55.301 50.979 55.254 51.007 55.186 51.047A1.4 1.4 0 0 1 54.873 51.184zM44.933 50.267C44.933 50.318 44.929 50.368 44.922 50.417 44.904 50.549 44.867 50.82 44.527 51.152L44.754 51.14 44.765 51.12C44.945 50.764 45.141 50.488 45.364 50.287A15 15 0 0 1 44.933 50.267M60.607 50.591A0.94 0.94 0 0 0 60.82 50.959C60.807 50.944 60.681 50.805 60.607 50.591M41.3 49.579C41.403 49.627 41.574 49.686 41.821 49.713 42.068 49.739 42.082 49.725 42.217 49.621 42.279 49.574 42.355 49.517 42.445 49.46A1.57 1.57 0 0 1 42.919 48.641C43.046 48.181 43.453 47.885 43.951 47.626 43.575 47.685 43.247 47.659 42.955 47.636L42.784 47.623C42.38 47.596 42.125 47.484 41.938 47.402 41.89 47.381 41.839 47.358 41.777 47.337A1.6 1.6 0 0 1 41.42 47.165 0.96 0.96 0 0 1 40.902 47.315H40.528A5 5 0 0 0 40.328 47.464C40.779 47.831 41.164 48.29 41.164 48.714A16 16 0 0 1 41.3 49.579M62.979 45.868C63.149 45.921 63.5 46.009 63.771 46.07 63.894 45.99 64.028 45.916 64.184 45.852L64.038 45.78A22 22 0 0 0 63.431 45.493C62.814 45.209 61.665 44.681 62.152 43.594 62.395 43.05 62.747 42.865 62.98 42.742L63.075 42.691 63.188 42.629A0.8 0.8 0 0 0 62.877 42.65C61.888 43.008 61.492 42.934 60.74 42.511L60.618 42.443C60.436 42.343 60.011 42.182 59.062 42.07 59.253 42.189 59.382 42.284 59.487 42.396 59.907 42.845 59.817 43.312 59.759 43.492 59.551 44.138 58.934 44.261 58.389 44.37L58.212 44.406C58.006 44.448 57.651 44.418 57.221 44.341 57.7 44.59 59.03 45.144 59.682 45.327 60.015 45.419 60.271 45.397 60.622 45.369 60.867 45.348 61.115 45.33 61.375 45.34L61.475 45.343C62.188 45.368 62.43 45.445 62.979 45.868M50.246 31.068L50.255 31.074C50.295 31.103 50.354 31.146 50.464 31.207 50.515 31.171 50.569 31.132 50.626 31.088L50.623 31.024A2 2 0 0 1 50.501 30.908 1.3 1.3 0 0 1 50.246 31.068M49.114 29.076C49.136 29.147 49.153 29.222 49.166 29.303 49.177 29.316 49.217 29.353 49.264 29.394L49.281 29.389C49.532 28.97 49.815 28.759 50.086 28.665A0.6 0.6 0 0 0 49.967 28.663L49.885 28.711C49.776 28.771 49.65 28.838 49.483 28.909 49.392 28.947 49.34 28.975 49.308 28.992A1.4 1.4 0 0 1 49.114 29.076M44.313 28.685C44.357 28.695 44.404 28.703 44.456 28.709 44.66 28.732 44.77 28.734 44.798 28.737 44.864 28.733 44.924 28.733 44.977 28.737 45.052 28.707 45.142 28.666 45.25 28.619L45.608 28.467C45.729 28.417 45.792 28.388 45.824 28.369 45.897 28.321 45.968 28.286 46.035 28.261 45.821 28.217 45.677 28.184 45.576 28.161L45.507 28.176C45.286 28.223 44.821 28.445 44.371 28.658zM48.204 26.721C48.529 26.801 48.703 26.88 48.925 27.038L48.958 27.019C49.413 26.77 49.785 26.666 50.561 26.78 50.642 26.793 50.715 26.805 50.781 26.818 50.834 26.676 50.896 26.316 50.944 25.877A4 4 0 0 1 50.764 25.895C50.693 25.915 50.591 25.97 50.4 26.075 50.177 26.196 50.096 26.271 50.017 26.344 49.798 26.547 49.519 26.764 48.981 26.764 48.872 26.764 48.634 26.747 48.395 26.622A3 3 0 0 1 48.226 26.693zM44.257 25.061C44.692 25.065 44.974 25.221 45.144 25.367L45.151 25.373H45.178C45.323 25.37 45.496 25.365 45.703 25.364 45.204 25.184 44.985 24.728 44.915 24.539 44.827 24.297 44.678 23.888 44.561 23.808 44.417 23.796 44.352 23.815 44.201 23.89L44.211 23.924C44.252 24.061 44.287 24.187 44.307 24.286 44.332 24.417 44.393 24.731 44.257 25.061M52.309 15.776A1 1 0 0 1 52.557 15.909C52.684 15.678 52.888 15.467 53.188 15.242A1 1 0 0 1 53.137 15.036C53.106 14.818 53.071 14.573 52.754 14.377 52.292 14.092 52.133 13.725 52.084 13.456A2.7 2.7 0 0 1 51.438 13.232L51.409 13.218 51.378 13.232C51.409 13.321 51.431 13.415 51.442 13.513 51.53 13.581 51.62 13.668 51.697 13.784 51.879 14.055 51.898 14.341 51.914 14.571 51.92 14.659 51.93 14.806 51.949 14.856 52.119 15.127 52.308 15.428 52.309 15.776"></path><path fill="black" d="M51.454 93.289A1.064 1.064 0 0 1 50.39 92.225V21.684A1.064 1.064 0 0 1 52.518 21.684V92.226A1.063 1.063 0 0 1 51.454 93.289"></path></svg></g></svg></g><g></g></svg></g><defs><mask></mask></defs></svg><rect width="159.70550238310224" height="247.2" fill="black" stroke="none" visibility="hidden"></rect></g></mask></svg><rect width="159.70550238310224" height="247.2" fill="black" stroke="none" visibility="hidden"></rect></g></mask><linearGradient x1="0.054" x2="0.941" y1="0.5" y2="0.5" id="2a3da47e-a5e8-4209-a8cc-12111fbdc62f"><stop stop-color="#8c8c8c" offset="0"></stop><stop stop-color="#e3e4e5" offset="0.498"></stop><stop stop-color="#8c8c8c" offset="1"></stop></linearGradient><rect width="159.70550238310224" height="247.2" fill="#ffffff" mask="url(#837eb80b-2b18-458a-b158-b2d7a2d64dd5)" data-fill-palette-color="accent"></rect></svg><rect width="159.70550238310224" height="247.2" fill="none" stroke="none" visibility="hidden"></rect></g></svg></g></svg>